{
    "asset" : {
        "generator" : "Khronos glTF Blender I/O v1.7.33",
        "version" : "2.0"
    },
    "scene" : 0,
    "scenes" : [
        {
            "name" : "Scene",
            "nodes" : [
                0
            ]
        }
    ],
    "nodes" : [
        {
            "mesh" : 0,
            "name" : "Curve.015",
            "rotation" : [
                0.7071068286895752,
                0,
                0,
                0.7071068286895752
            ],
            "scale" : [
                5.795129299163818,
                5.795129299163818,
                5.795129299163818
            ],
            "translation" : [
                0,
                -0.14776305854320526,
                0
            ]
        }
    ],
    "materials" : [
        {
            "doubleSided" : true,
            "name" : "SVGMat.034",
            "pbrMetallicRoughness" : {
                "baseColorFactor" : [
                    1,
                    1,
                    1,
                    1
                ],
                "metallicFactor" : 0.559585452079773,
                "roughnessFactor" : 0
            }
        }
    ],
    "meshes" : [
        {
            "name" : "Curve.001",
            "primitives" : [
                {
                    "attributes" : {
                        "POSITION" : 0,
                        "NORMAL" : 1
                    },
                    "indices" : 2,
                    "material" : 0
                }
            ]
        }
    ],
    "accessors" : [
        {
            "bufferView" : 0,
            "componentType" : 5126,
            "count" : 951528,
            "max" : [
                0.8695191144943237,
                0.04807985574007034,
                0.011153191328048706
            ],
            "min" : [
                -0.0012654332676902413,
                -0.13293218612670898,
                -0.6207829117774963
            ],
            "type" : "VEC3"
        },
        {
            "bufferView" : 1,
            "componentType" : 5126,
            "count" : 951528,
            "type" : "VEC3"
        },
        {
            "bufferView" : 2,
            "componentType" : 5125,
            "count" : 1427292,
            "type" : "SCALAR"
        }
    ],
    "bufferViews" : [
        {
            "buffer" : 0,
            "byteLength" : 11418336,
            "byteOffset" : 0
        },
        {
            "buffer" : 0,
            "byteLength" : 11418336,
            "byteOffset" : 11418336
        },
        {
            "buffer" : 0,
            "byteLength" : 5709168,
            "byteOffset" : 22836672
        }
    ],
    "buffers" : [
        {
            "byteLength" : 28545840,
            "uri" : "blenderNatureEstDecouverte.bin"
        }
    ]
}
