<svg width="487" height="91" viewBox="0 0 487 91" fill="none" xmlns="http://www.w3.org/2000/svg">
<path d="M0 65.1275H2.30398L10.0799 8.92157L9.4399 7.13725H4.63995V3.56863H12.9599L21.0238 65.1275H23.6798V68.6961H0V65.1275ZM16.6398 65.1275L17.2798 63.3431L14.9438 45.0539H6.65593L4.15996 63.3431L4.79995 65.1275H16.6398ZM14.5279 41.4853L11.1999 13.9176H10.8799L7.10393 41.4853H14.5279Z" fill="black"/>
<path d="M53.1835 91C50.9008 91 49.0875 89.751 47.7435 87.2529C46.4209 84.7549 45.7062 81.2458 45.5995 76.7255L45.4395 69.5882L48.6395 71.3726V78.5098C48.6395 81.3647 49.0448 83.5654 49.8555 85.1118C50.6875 86.6582 51.8608 87.4314 53.3755 87.4314C54.9541 87.4314 56.1808 86.5987 57.0554 84.9333C57.9514 83.268 58.3994 81.0079 58.3994 78.1529C58.3994 75.7739 58.0474 73.7516 57.3434 72.0863C56.6608 70.4209 55.6474 69.3801 54.3034 68.9637L51.5515 68.0716C49.7595 67.4768 48.4795 66.1088 47.7115 63.9677C46.9648 61.8265 46.5915 58.3471 46.5915 53.5294L49.9195 52.6373V51.7451C48.9808 50.7935 48.2128 49.0686 47.6155 46.5706C47.0182 44.0726 46.7195 41.3366 46.7195 38.3628C46.7195 35.3889 46.9862 32.6827 47.5195 30.2441C48.0528 27.7461 48.7782 25.8131 49.6955 24.4451C50.6341 23.0176 51.6688 22.3039 52.7995 22.3039C53.7381 22.3039 54.6021 22.7797 55.3914 23.7314C56.1808 24.6235 56.8528 25.9023 57.4074 27.5676C57.6634 25.8428 58.0367 24.4748 58.5274 23.4637C59.0181 22.4526 59.5621 21.9173 60.1594 21.8578L62.3994 21.4118L61.9194 29.4412H58.5594L58.1754 30.5118C58.6447 32.9503 58.8794 35.5673 58.8794 38.3628C58.8794 43.3588 58.3567 47.1654 57.3114 49.7824C56.2874 52.3994 54.7834 53.9458 52.7995 54.4216L49.4395 55.3137C49.5248 56.9791 49.7702 58.2579 50.1755 59.15C50.6021 60.0422 51.2955 60.6369 52.2555 60.9343L54.9434 61.7373C56.9914 62.332 58.5061 63.819 59.4874 66.198C60.4687 68.5771 60.9594 71.551 60.9594 75.1196C60.9594 80.0562 60.2661 83.9222 58.8794 86.7177C57.4927 89.5726 55.5941 91 53.1835 91ZM52.7995 50.8529C53.7808 50.8529 54.5274 49.7824 55.0394 47.6412C55.5728 45.4405 55.8394 42.3477 55.8394 38.3628C55.8394 34.3778 55.5728 31.3147 55.0394 29.1735C54.5274 26.9729 53.7808 25.8726 52.7995 25.8726C51.8181 25.8726 51.0608 26.9729 50.5275 29.1735C50.0155 31.3147 49.7595 34.3778 49.7595 38.3628C49.7595 42.3477 50.0155 45.4405 50.5275 47.6412C51.0608 49.7824 51.8181 50.8529 52.7995 50.8529Z" fill="black"/>
<path d="M89.7333 69.5882C88.1547 69.5882 86.9387 68.7258 86.0854 67.001C85.232 65.2762 84.8054 62.7781 84.8054 59.5069C84.8054 57.1278 85.0294 55.1056 85.4774 53.4402C85.9254 51.7154 86.64 50.1987 87.6213 48.8902C88.624 47.5817 89.9787 46.3327 91.6853 45.1431L95.0453 42.8235V36.5784C95.0453 33.1288 94.7573 30.482 94.1813 28.6382C93.6266 26.7944 92.8053 25.8726 91.7173 25.8726C90.6933 25.8726 89.8933 26.5863 89.3173 28.0137C88.7627 29.3817 88.4853 31.3444 88.4853 33.902V40.1471L85.6054 43.7157L85.7654 35.6863C85.8507 31.4039 86.416 28.1029 87.4614 25.7833C88.5067 23.4637 89.9467 22.3039 91.7813 22.3039C93.744 22.3039 95.2586 23.5529 96.3253 26.051C97.3919 28.4895 97.9252 31.9987 97.9252 36.5784V63.3431L98.5652 65.1275H100.485V68.6961H95.3653V61.2912H95.0453C94.5546 63.8487 93.8506 65.8709 92.9333 67.3579C92.0373 68.8448 90.9707 69.5882 89.7333 69.5882ZM90.4693 65.1275C91.3653 65.1275 92.1546 64.384 92.8373 62.8971C93.5413 61.3507 94.0853 59.2987 94.4693 56.7412C94.8533 54.1242 95.0453 51.2693 95.0453 48.1765V46.8382C93.2533 47.9683 91.8346 49.0984 90.7893 50.2284C89.744 51.3585 88.9867 52.6075 88.5173 53.9755C88.0693 55.3435 87.8454 56.9494 87.8454 58.7931C87.8454 60.8154 88.0693 62.3915 88.5173 63.5216C88.9653 64.5922 89.616 65.1275 90.4693 65.1275Z" fill="black"/>
<path d="M128.45 69.5882C127.192 69.5882 126.189 68.6366 125.442 66.7333C124.696 64.7706 124.322 62.1536 124.322 58.8824V27.6569H121.443V25.8726C122.403 24.9804 123.224 23.7909 123.906 22.3039C124.589 20.817 125.144 19.0029 125.57 16.8618C126.018 14.6611 126.349 12.0144 126.562 8.92157H127.202V24.0882H132.322V27.6569H127.202V58.8824C127.202 60.7856 127.373 62.3023 127.714 63.4324C128.077 64.5624 128.536 65.1275 129.09 65.1275C129.986 65.1275 130.722 63.7892 131.298 61.1128C131.874 58.3768 132.173 54.3026 132.194 48.8902L133.282 49.0686C133.282 53.5294 133.112 57.2765 132.77 60.3098C132.429 63.3431 131.896 65.6628 131.17 67.2686C130.466 68.815 129.56 69.5882 128.45 69.5882Z" fill="black"/>
<path d="M155.535 65.1275H157.455L158.095 63.3431V7.13725H155.535V3.56863C156.431 3.56863 157.359 3.27124 158.319 2.67647C159.3 2.02222 160.185 1.13007 160.975 0V29.4412H161.295C161.828 27.2405 162.585 25.5157 163.567 24.2667C164.548 22.9582 165.604 22.3039 166.735 22.3039C168.505 22.3039 169.849 23.6719 170.766 26.4078C171.705 29.1438 172.174 33.1288 172.174 38.3628V63.3431L172.814 65.1275H174.734V68.6961H155.535V65.1275ZM168.655 65.1275L169.295 63.3431V40.1471C169.295 36.1026 168.985 33.0098 168.367 30.8686C167.769 28.7275 166.905 27.6569 165.775 27.6569C164.751 27.6569 163.876 28.2516 163.151 29.4412C162.447 30.5712 161.903 32.2663 161.519 34.5265C161.156 36.7866 160.975 39.5523 160.975 42.8235V63.3431L161.615 65.1275H168.655Z" fill="black"/>
<path d="M204.574 69.5882C203.081 69.5882 201.769 68.6366 200.638 66.7333C199.529 64.8301 198.665 62.1536 198.046 58.7039C197.449 55.2543 197.15 51.2395 197.15 46.6598C197.15 41.6637 197.47 37.3516 198.11 33.7235C198.75 30.036 199.657 27.2108 200.83 25.248C202.004 23.2853 203.369 22.3039 204.926 22.3039C206.334 22.3039 207.561 23.1069 208.606 24.7127C209.652 26.2592 210.452 28.5193 211.006 31.4931C211.582 34.467 211.87 37.9464 211.87 41.9314L210.91 44.6078H200.35C200.329 44.9647 200.318 45.2918 200.318 45.5892C200.318 45.8866 200.318 46.1543 200.318 46.3922C200.318 50.0203 200.532 53.2618 200.958 56.1167C201.385 58.9121 201.982 61.1128 202.75 62.7186C203.518 64.3245 204.393 65.1275 205.374 65.1275C206.313 65.1275 207.166 64.4137 207.934 62.9863C208.724 61.4994 209.385 59.5069 209.918 57.0088C210.452 54.4513 210.836 51.5964 211.07 48.4441L212.19 49.0686C211.785 55.4327 210.932 60.4585 209.63 64.1461C208.35 67.7742 206.665 69.5882 204.574 69.5882ZM208.03 41.0392L208.67 39.2549C208.67 35.032 208.34 31.7608 207.678 29.4412C207.038 27.1216 206.153 25.9618 205.022 25.9618C204.254 25.9618 203.55 26.5565 202.91 27.7461C202.292 28.8761 201.769 30.5712 201.342 32.8314C200.916 35.0915 200.628 37.8275 200.478 41.0392H208.03Z" fill="black"/>
<path d="M272.471 70.4804C270.38 70.4804 268.738 68.9637 267.543 65.9304C266.348 62.8376 265.751 58.6147 265.751 53.2618C265.751 47.9088 266.359 43.5373 267.575 40.1471C268.791 36.7569 270.476 34.7346 272.631 34.0804C272.29 32.7719 272.044 31.8203 271.895 31.2255C271.212 28.4895 270.711 26.0807 270.391 23.999C270.092 21.8578 269.943 19.5382 269.943 17.0402C269.943 12.3415 270.455 8.62418 271.479 5.88823C272.524 3.15229 273.932 1.78431 275.703 1.78431C277.474 1.78431 278.85 3.12255 279.831 5.79902C280.812 8.47549 281.303 12.2523 281.303 17.1294C281.303 19.1516 281.218 21.0549 281.047 22.8392C280.876 24.5641 280.62 26.1699 280.279 27.6569H289.751V31.2255H287.031L281.271 52.8157L283.319 60.7559C283.788 62.5997 284.247 63.9379 284.695 64.7706C285.164 65.6033 285.676 66.0196 286.231 66.0196C286.999 66.0196 287.607 65.5141 288.055 64.5029C288.503 63.4324 288.855 61.8562 289.111 59.7745L290.071 60.6667C289.836 63.9379 289.271 66.4062 288.375 68.0716C287.5 69.6775 286.369 70.4804 284.983 70.4804C284.002 70.4804 283.159 69.9748 282.455 68.9637C281.772 68.0121 281.122 66.4062 280.503 64.1461L279.447 60.2206C278.871 62.3023 278.274 64.0866 277.655 65.5735C277.036 67.0605 276.3 68.25 275.447 69.1422C274.594 70.0343 273.602 70.4804 272.471 70.4804ZM273.271 66.0196C274.167 66.0196 275.031 65.3059 275.863 63.8784C276.716 62.451 277.527 60.2503 278.295 57.2765C278.338 57.1575 278.37 57.0386 278.391 56.9196C278.434 56.7412 278.466 56.5925 278.487 56.4735L273.527 37.4706C272.204 37.649 271.159 39.0467 270.391 41.6637C269.644 44.2212 269.271 47.7007 269.271 52.102C269.271 56.5628 269.612 60.0124 270.295 62.451C270.999 64.8301 271.991 66.0196 273.271 66.0196ZM284.791 33.0098L284.151 31.2255H279.127C278.7 32.1771 278.295 32.8909 277.911 33.3667C277.698 33.6641 277.474 33.9317 277.239 34.1696C277.004 34.4075 276.77 34.586 276.535 34.7049L280.439 49.7824L284.791 33.0098ZM275.799 32.0284C276.631 31.6121 277.282 30.2144 277.751 27.8353C278.22 25.3967 278.455 22.3039 278.455 18.5569C278.455 14.334 278.199 11.0925 277.687 8.83236C277.175 6.51275 276.439 5.35294 275.479 5.35294C274.626 5.35294 273.964 6.18562 273.495 7.85098C273.026 9.45686 272.791 11.7765 272.791 14.8098C272.791 17.0105 273.004 19.3598 273.431 21.8578C273.858 24.2964 274.583 27.4487 275.607 31.3147L275.799 32.0284Z" fill="black"/>
<path d="M342.191 65.1275H344.495L352.271 8.92157L351.631 7.13725H346.831V3.56863H355.151L363.215 65.1275H365.871V68.6961H342.191V65.1275ZM358.831 65.1275L359.471 63.3431L357.135 45.0539H348.847L346.351 63.3431L346.991 65.1275H358.831ZM356.719 41.4853L353.391 13.9176H353.071L349.295 41.4853H356.719Z" fill="black"/>
<path d="M387.631 65.1275H389.551L390.191 63.3431V29.4412H387.631V25.8726C388.442 25.8726 389.295 25.5752 390.191 24.9804C391.108 24.3261 391.962 23.434 392.751 22.3039V30.3333H393.071C393.69 27.7163 394.49 25.7239 395.471 24.3559C396.452 22.9879 397.572 22.3039 398.831 22.3039C400.602 22.3039 401.946 23.6719 402.863 26.4078C403.802 29.1438 404.271 33.1288 404.271 38.3628V63.3431L404.911 65.1275H406.831V68.6961H387.631V65.1275ZM400.751 65.1275L401.391 63.3431V40.1471C401.391 36.1026 401.082 33.0098 400.463 30.8686C399.866 28.7275 399.002 27.6569 397.871 27.6569C396.847 27.6569 395.972 28.2516 395.247 29.4412C394.543 30.5712 393.999 32.2663 393.615 34.5265C393.252 36.7866 393.071 39.5523 393.071 42.8235V63.3431L393.711 65.1275H400.751Z" fill="black"/>
<path d="M429.236 65.1275H431.156L431.796 63.3431V29.4412H429.236V25.8726C430.046 25.8726 430.9 25.5752 431.796 24.9804C432.713 24.3261 433.566 23.434 434.356 22.3039V30.3333H434.676C435.294 27.7163 436.094 25.7239 437.076 24.3559C438.057 22.9879 439.177 22.3039 440.435 22.3039C442.206 22.3039 443.55 23.6719 444.467 26.4078C445.406 29.1438 445.875 33.1288 445.875 38.3628V63.3431L446.515 65.1275H448.435V68.6961H429.236V65.1275ZM442.355 65.1275L442.995 63.3431V40.1471C442.995 36.1026 442.686 33.0098 442.067 30.8686C441.47 28.7275 440.606 27.6569 439.476 27.6569C438.452 27.6569 437.577 28.2516 436.852 29.4412C436.148 30.5712 435.604 32.2663 435.22 34.5265C434.857 36.7866 434.676 39.5523 434.676 42.8235V63.3431L435.316 65.1275H442.355Z" fill="black"/>
<path d="M476.248 69.5882C474.669 69.5882 473.453 68.7258 472.6 67.001C471.747 65.2762 471.32 62.7781 471.32 59.5069C471.32 57.1278 471.544 55.1056 471.992 53.4402C472.44 51.7154 473.155 50.1987 474.136 48.8902C475.139 47.5817 476.493 46.3327 478.2 45.1431L481.56 42.8235V36.5784C481.56 33.1288 481.272 30.482 480.696 28.6382C480.141 26.7944 479.32 25.8726 478.232 25.8726C477.208 25.8726 476.408 26.5863 475.832 28.0137C475.277 29.3817 475 31.3444 475 33.902V40.1471L472.12 43.7157L472.28 35.6863C472.365 31.4039 472.931 28.1029 473.976 25.7833C475.021 23.4637 476.461 22.3039 478.296 22.3039C480.259 22.3039 481.773 23.5529 482.84 26.051C483.907 28.4895 484.44 31.9987 484.44 36.5784V63.3431L485.08 65.1275H487V68.6961H481.88V61.2912H481.56C481.069 63.8487 480.365 65.8709 479.448 67.3579C478.552 68.8448 477.485 69.5882 476.248 69.5882ZM476.984 65.1275C477.88 65.1275 478.669 64.384 479.352 62.8971C480.056 61.3507 480.6 59.2987 480.984 56.7412C481.368 54.1242 481.56 51.2693 481.56 48.1765V46.8382C479.768 47.9683 478.349 49.0984 477.304 50.2284C476.259 51.3585 475.501 52.6075 475.032 53.9755C474.584 55.3435 474.36 56.9494 474.36 58.7931C474.36 60.8154 474.584 62.3915 475.032 63.5216C475.48 64.5922 476.131 65.1275 476.984 65.1275Z" fill="black"/>
<path d="M27.3 5.81502C27.46 6.78836 27.54 7.72836 27.54 8.63502C27.54 10.6217 27.22 12.435 26.58 14.075C25.94 15.715 25.1067 17.0084 24.08 17.955C23.0533 18.9017 22.0067 19.375 20.94 19.375C20.4067 19.375 19.7867 19.1817 19.08 18.795C18.3867 18.395 17.7867 17.9217 17.28 17.375C16.7733 16.815 16.52 16.3217 16.52 15.895C16.52 14.9617 16.68 13.4617 17 11.395C17.32 9.32836 17.7 7.53502 18.14 6.01502C18.58 5.80169 19.04 5.69502 19.52 5.69502C20.0267 5.69502 20.4667 5.83502 20.84 6.11502C21.2133 6.38169 21.4667 6.76169 21.6 7.25502C21.2133 8.14836 20.8333 9.40836 20.46 11.035C20.1 12.6617 19.92 13.9884 19.92 15.015C19.92 16.015 20.1133 16.515 20.5 16.515C21.0733 16.515 21.6333 16.1484 22.18 15.415C22.7267 14.6684 23.1733 13.7084 23.52 12.535C23.8667 11.3484 24.04 10.1484 24.04 8.93502C24.04 8.02836 23.9333 7.17502 23.72 6.37502C24.3867 5.64169 25.0933 5.27502 25.84 5.27502C26.36 5.27502 26.8467 5.45502 27.3 5.81502ZM37.1536 15.055C37.7403 15.255 38.1736 15.535 38.4536 15.895C38.7469 16.2417 38.8936 16.6417 38.8936 17.095C38.8936 17.415 38.6669 17.7484 38.2136 18.095C37.7603 18.4284 37.2203 18.7084 36.5936 18.935C35.9669 19.1617 35.4336 19.275 34.9936 19.275C34.6869 19.275 34.3336 19.155 33.9336 18.915C33.5336 18.675 33.1869 18.4017 32.8936 18.095C32.6136 17.775 32.4736 17.5284 32.4736 17.355C32.4736 17.2217 32.6203 16.7017 32.9136 15.795C33.4336 14.2084 33.6936 13.2084 33.6936 12.795C33.6936 12.635 33.6536 12.555 33.5736 12.555C33.0403 12.555 32.0469 13.4884 30.5936 15.355C30.5403 15.5684 30.4803 15.835 30.4136 16.155C30.3603 16.475 30.3203 16.7017 30.2936 16.835C30.1469 17.6217 30.0069 18.2284 29.8736 18.655C29.7536 19.0684 29.5936 19.275 29.3936 19.275C29.0469 19.275 28.6536 19.1617 28.2136 18.935C27.7869 18.695 27.4136 18.4217 27.0936 18.115C26.7869 17.795 26.6336 17.5284 26.6336 17.315C26.6336 17.075 26.7203 16.7217 26.8936 16.255C27.0669 15.7884 27.3269 15.1484 27.6736 14.335C27.9403 13.7084 28.1403 13.2217 28.2736 12.875C28.4069 12.515 28.4736 12.2617 28.4736 12.115C28.4736 12.0084 28.4069 11.895 28.2736 11.775C28.1536 11.6417 27.9669 11.4817 27.7136 11.295C27.4203 11.0684 27.2003 10.8884 27.0536 10.755C26.9203 10.6217 26.8536 10.4817 26.8536 10.335C26.8536 10.055 26.9803 9.72836 27.2336 9.35502C27.5003 8.98169 27.8069 8.66169 28.1536 8.39502C28.5136 8.12836 28.8203 7.99502 29.0736 7.99502C29.3536 7.99502 29.6736 8.12169 30.0336 8.37502C30.4069 8.62836 30.7269 8.92169 30.9936 9.25502C31.2736 9.57502 31.4136 9.82169 31.4136 9.99502C31.4136 10.315 31.3736 10.7084 31.2936 11.175C31.2269 11.6417 31.1336 12.1017 31.0136 12.555C31.9869 11.275 32.7936 10.2884 33.4336 9.59502C34.0736 8.88836 34.5736 8.53502 34.9336 8.53502C35.1869 8.53502 35.4936 8.66169 35.8536 8.91502C36.2136 9.16836 36.5203 9.46169 36.7736 9.79502C37.0403 10.115 37.1736 10.3617 37.1736 10.535C37.1603 10.7617 37.0669 11.1484 36.8936 11.695C36.7203 12.2417 36.4736 12.9684 36.1536 13.875C35.7269 15.0484 35.4536 15.8417 35.3336 16.255C35.7469 16.0417 36.0669 15.8617 36.2936 15.715C36.5336 15.555 36.8203 15.335 37.1536 15.055ZM49.2459 8.33502C49.9526 8.33502 50.5793 8.50169 51.1259 8.83502C51.6726 9.16836 52.0926 9.62836 52.3859 10.215C52.6926 10.7884 52.8459 11.435 52.8459 12.155C52.8459 13.2217 52.5393 14.315 51.9259 15.435C51.3259 16.5417 50.5326 17.4617 49.5459 18.195C48.5726 18.915 47.5593 19.275 46.5059 19.275C46.0526 19.275 45.5993 19.095 45.1459 18.735C44.9859 19.4017 44.8593 20.0817 44.7659 20.775C44.6859 21.4817 44.6393 21.895 44.6259 22.015C44.5193 22.9217 44.4126 23.575 44.3059 23.975C44.2126 24.375 44.0593 24.575 43.8459 24.575C43.4993 24.575 43.1126 24.4617 42.6859 24.235C42.2726 24.0084 41.9193 23.735 41.6259 23.415C41.3193 23.1084 41.1659 22.8417 41.1659 22.615C41.1659 22.3617 41.2793 21.8017 41.5059 20.935C41.7326 20.0684 42.0793 18.815 42.5459 17.175C42.9593 15.7084 43.2793 14.555 43.5059 13.715C43.7326 12.875 43.8459 12.3417 43.8459 12.115C43.8459 12.0084 43.7859 11.9017 43.6659 11.795C43.5593 11.675 43.3793 11.5084 43.1259 11.295C42.8459 11.0684 42.6393 10.8884 42.5059 10.755C42.3726 10.6217 42.3059 10.4817 42.3059 10.335C42.3059 10.055 42.4326 9.72836 42.6859 9.35502C42.9526 8.98169 43.2593 8.66169 43.6059 8.39502C43.9659 8.12836 44.2726 7.99502 44.5259 7.99502C44.9126 7.99502 45.3526 8.20836 45.8459 8.63502C46.3393 9.06169 46.6926 9.48836 46.9059 9.91502L47.6859 8.59502C48.2059 8.42169 48.7259 8.33502 49.2459 8.33502ZM46.5059 16.715C46.9326 16.715 47.3993 16.495 47.9059 16.055C48.4126 15.6017 48.8393 15.0484 49.1859 14.395C49.5326 13.7284 49.7059 13.095 49.7059 12.495C49.7059 12.055 49.5993 11.715 49.3859 11.475C49.1726 11.235 48.8659 11.115 48.4659 11.115C47.9993 11.115 47.5726 11.3817 47.1859 11.915C46.8126 12.435 46.5126 13.075 46.2859 13.835C46.0726 14.595 45.9659 15.295 45.9659 15.935C45.9659 16.1884 46.0126 16.3817 46.1059 16.515C46.2126 16.6484 46.3459 16.715 46.5059 16.715ZM55.3866 19.275C55.0266 19.275 54.6332 19.1617 54.2066 18.935C53.7799 18.695 53.4132 18.4217 53.1066 18.115C52.7999 17.795 52.6466 17.5284 52.6466 17.315C52.6466 17.0617 52.6999 16.735 52.8066 16.335C52.9132 15.9217 53.0732 15.3884 53.2866 14.735C53.4999 14.055 53.6599 13.515 53.7666 13.115C53.8732 12.7017 53.9266 12.3684 53.9266 12.115C53.9266 12.0084 53.8666 11.895 53.7466 11.775C53.6266 11.655 53.4399 11.495 53.1866 11.295C52.8932 11.055 52.6799 10.8684 52.5466 10.735C52.4132 10.6017 52.3466 10.4684 52.3466 10.335C52.3466 10.055 52.4799 9.72836 52.7466 9.35502C53.0132 8.98169 53.3266 8.66169 53.6866 8.39502C54.0466 8.12836 54.3532 7.99502 54.6066 7.99502C54.8866 7.99502 55.2066 8.12169 55.5666 8.37502C55.9266 8.62836 56.2399 8.92169 56.5066 9.25502C56.7732 9.57502 56.9066 9.82169 56.9066 9.99502C56.9066 10.5017 56.8066 11.1684 56.6066 11.995L56.8466 12.115C57.1532 11.6217 57.4866 11.035 57.8466 10.355C58.2199 9.66169 58.4466 9.23502 58.5266 9.07502L58.9066 8.35502C59.8266 8.32836 60.5132 8.49502 60.9666 8.85502C61.4199 9.21502 61.6466 9.69502 61.6466 10.295C61.6466 10.8817 61.4532 11.4684 61.0666 12.055C60.1066 12.375 59.2866 12.695 58.6066 13.015C57.9399 13.3217 57.2666 13.6884 56.5866 14.115C56.5466 15.595 56.4266 16.8284 56.2266 17.815C56.0399 18.7884 55.7599 19.275 55.3866 19.275ZM64.7708 7.97502C65.7174 8.08169 66.5774 8.36836 67.3508 8.83502C68.1374 9.28836 68.7508 9.83502 69.1908 10.475C69.6308 11.115 69.8508 11.755 69.8508 12.395C69.8508 13.355 69.6041 14.375 69.1108 15.455C68.6174 16.535 67.9308 17.4417 67.0508 18.175C66.1708 18.9084 65.1908 19.275 64.1108 19.275C63.5774 19.275 63.0108 19.0817 62.4108 18.695C61.8108 18.295 61.3041 17.815 60.8908 17.255C60.4908 16.6817 60.2908 16.175 60.2908 15.735C60.2908 14.9217 60.3908 14.0884 60.5908 13.235C60.7908 12.3684 61.0974 11.5284 61.5108 10.715C61.8974 10.5017 62.2841 10.395 62.6708 10.395C62.8441 10.395 63.0041 10.415 63.1508 10.455C63.0974 10.295 63.0708 10.1084 63.0708 9.89502C63.0708 9.46836 63.2174 9.08169 63.5108 8.73502C63.8174 8.38836 64.2374 8.13502 64.7708 7.97502ZM63.3908 16.995C64.4974 16.6217 65.3574 15.9817 65.9708 15.075C66.5841 14.1684 66.9908 13.0884 67.1908 11.835C66.5908 11.4084 65.7774 11.195 64.7508 11.195C64.4974 11.195 64.3041 11.2017 64.1708 11.215C64.3174 11.4817 64.3908 11.7817 64.3908 12.115C64.0441 12.6617 63.7774 13.2684 63.5908 13.935C63.4041 14.5884 63.3108 15.2484 63.3108 15.915C63.3108 16.315 63.3374 16.675 63.3908 16.995ZM72.8056 7.41502C72.5523 7.41502 72.2456 7.31502 71.8856 7.11502C71.539 6.90169 71.239 6.65502 70.9856 6.37502C70.7323 6.08169 70.6056 5.82169 70.6056 5.59502C70.6056 5.23502 70.699 4.87502 70.8856 4.51502C71.0723 4.15502 71.3056 3.89502 71.5856 3.73502C71.719 3.66836 71.9323 3.63502 72.2256 3.63502C72.7056 3.63502 73.1856 3.74169 73.6656 3.95502C74.159 4.16836 74.459 4.43502 74.5656 4.75502C74.5923 4.82169 74.6056 4.92169 74.6056 5.05502C74.6056 5.36169 74.5123 5.70169 74.3256 6.07502C74.139 6.44836 73.9056 6.76836 73.6256 7.03502C73.3456 7.28836 73.0723 7.41502 72.8056 7.41502ZM68.5056 24.655C67.879 24.655 67.2323 24.5017 66.5656 24.195C65.8856 23.8884 65.3256 23.495 64.8856 23.015C64.4323 22.5484 64.2056 22.0817 64.2056 21.615C64.2056 21.1217 64.399 20.7084 64.7856 20.375C65.1723 20.055 65.639 19.895 66.1856 19.895C66.4123 19.895 66.6256 19.9217 66.8256 19.975C67.1856 20.9084 67.4656 21.555 67.6656 21.915C67.8523 22.275 68.0856 22.455 68.3656 22.455C68.6723 22.455 68.959 21.9617 69.2256 20.975C69.4923 19.9884 69.7523 18.6884 70.0056 17.075C70.059 16.7017 70.199 15.875 70.4256 14.595C70.6923 13.1817 70.819 12.335 70.8056 12.055C70.8056 11.9484 70.7523 11.8417 70.6456 11.735C70.539 11.6284 70.359 11.4684 70.1056 11.255C69.839 11.055 69.6323 10.8884 69.4856 10.755C69.3523 10.6084 69.2856 10.4617 69.2856 10.315C69.2856 10.035 69.4056 9.70836 69.6456 9.33502C69.8856 8.96169 70.179 8.64836 70.5256 8.39502C70.8856 8.12836 71.2123 7.99502 71.5056 7.99502C71.7856 7.99502 72.119 8.12836 72.5056 8.39502C72.9056 8.64836 73.2523 8.94836 73.5456 9.29502C73.8523 9.62836 74.0056 9.88836 74.0056 10.075C74.019 10.3017 73.8723 11.115 73.5656 12.515C73.5123 12.755 73.399 13.295 73.2256 14.135C73.0523 14.9617 72.9056 15.755 72.7856 16.515C72.6523 17.3017 72.5056 18.335 72.3456 19.615C72.2123 20.615 72.1056 21.355 72.0256 21.835C71.9456 22.315 71.8456 22.6684 71.7256 22.895C71.499 23.3084 71.039 23.7017 70.3456 24.075C69.6523 24.4617 69.039 24.655 68.5056 24.655ZM77.9366 19.275C77.2966 19.275 76.6299 19.0684 75.9366 18.655C75.2432 18.2284 74.6699 17.7084 74.2166 17.095C73.7632 16.4817 73.5366 15.9017 73.5366 15.355C73.5366 14.3817 73.7632 13.315 74.2166 12.155C74.6832 10.995 75.3232 10.015 76.1366 9.21502C76.9499 8.40169 77.8699 7.99502 78.8966 7.99502C79.6299 7.99502 80.2899 8.15502 80.8766 8.47502C81.4766 8.79502 81.9432 9.19502 82.2766 9.67502C82.6099 10.155 82.7766 10.6217 82.7766 11.075C82.7766 11.635 82.5232 12.1884 82.0166 12.735C81.5099 13.2684 80.8032 13.7417 79.8966 14.155C78.9899 14.555 77.9566 14.8417 76.7966 15.015C76.7832 15.175 76.7766 15.415 76.7766 15.735C76.7766 16.135 76.7899 16.435 76.8166 16.635C77.4832 16.5684 78.1432 16.3884 78.7966 16.095C79.4499 15.8017 80.1632 15.3884 80.9366 14.855C81.4566 15.015 81.8499 15.2684 82.1166 15.615C82.3832 15.9617 82.5166 16.375 82.5166 16.855C82.5166 17.255 82.2699 17.6484 81.7766 18.035C81.2966 18.4084 80.6966 18.7084 79.9766 18.935C79.2566 19.1617 78.5766 19.275 77.9366 19.275ZM77.0966 13.515C77.9099 13.2217 78.5899 12.8484 79.1366 12.395C79.6832 11.9417 79.9566 11.555 79.9566 11.235C79.9566 10.8617 79.6966 10.6084 79.1766 10.475C78.6699 10.8484 78.2366 11.295 77.8766 11.815C77.5299 12.335 77.2699 12.9017 77.0966 13.515ZM86.7672 11.415C86.3272 13.4284 86.0405 15.0684 85.9072 16.335C86.7605 15.9217 87.4472 15.495 87.9672 15.055C88.5539 15.255 88.9872 15.535 89.2672 15.895C89.5605 16.2417 89.7072 16.6417 89.7072 17.095C89.7072 17.415 89.4805 17.7484 89.0272 18.095C88.5739 18.4284 88.0339 18.7084 87.4072 18.935C86.7805 19.1617 86.2472 19.275 85.8072 19.275C85.4205 19.275 84.9872 19.1617 84.5072 18.935C84.0405 18.695 83.6405 18.4217 83.3072 18.115C82.9739 17.795 82.8072 17.5217 82.8072 17.295C82.8072 17.1084 82.8739 16.7084 83.0072 16.095C83.1539 15.4684 83.2805 14.935 83.3872 14.495C83.5072 14.0417 83.5939 13.7084 83.6472 13.495L84.1272 11.575L82.9072 11.655C82.6805 11.5484 82.5072 11.3817 82.3872 11.155C82.2672 10.9284 82.2072 10.6684 82.2072 10.375C82.2072 9.84169 82.4005 9.38836 82.7872 9.01502C83.2672 9.04169 83.8539 9.06836 84.5472 9.09502C84.5472 8.24169 84.6405 7.30169 84.8272 6.27502C85.0139 5.23502 85.2205 4.71502 85.4472 4.71502C85.7272 4.71502 86.0805 4.83502 86.5072 5.07502C86.9339 5.31502 87.3072 5.59502 87.6272 5.91502C87.9472 6.23502 88.1072 6.51502 88.1072 6.75502C88.1072 7.06169 88.0472 7.37502 87.9272 7.69502C87.8205 8.00169 87.6405 8.42836 87.3872 8.97502C87.6139 8.94836 88.1872 8.85502 89.1072 8.69502L89.5672 8.61502C89.8072 8.74836 89.9872 8.94169 90.1072 9.19502C90.2405 9.44836 90.3072 9.72169 90.3072 10.015C90.3072 10.255 90.2605 10.4884 90.1672 10.715C90.0739 10.9417 89.9339 11.135 89.7472 11.295L86.7672 11.415ZM100.448 8.33502C101.155 8.33502 101.782 8.50169 102.328 8.83502C102.875 9.16836 103.295 9.62836 103.588 10.215C103.895 10.7884 104.048 11.435 104.048 12.155C104.048 13.2217 103.742 14.315 103.128 15.435C102.528 16.5417 101.735 17.4617 100.748 18.195C99.7749 18.915 98.7616 19.275 97.7083 19.275C97.2549 19.275 96.8016 19.095 96.3483 18.735C96.1883 19.4017 96.0616 20.0817 95.9683 20.775C95.8883 21.4817 95.8416 21.895 95.8283 22.015C95.7216 22.9217 95.6149 23.575 95.5083 23.975C95.4149 24.375 95.2616 24.575 95.0483 24.575C94.7016 24.575 94.3149 24.4617 93.8883 24.235C93.4749 24.0084 93.1216 23.735 92.8283 23.415C92.5216 23.1084 92.3683 22.8417 92.3683 22.615C92.3683 22.3617 92.4816 21.8017 92.7083 20.935C92.9349 20.0684 93.2816 18.815 93.7483 17.175C94.1616 15.7084 94.4816 14.555 94.7083 13.715C94.9349 12.875 95.0483 12.3417 95.0483 12.115C95.0483 12.0084 94.9883 11.9017 94.8683 11.795C94.7616 11.675 94.5816 11.5084 94.3283 11.295C94.0483 11.0684 93.8416 10.8884 93.7083 10.755C93.5749 10.6217 93.5083 10.4817 93.5083 10.335C93.5083 10.055 93.6349 9.72836 93.8883 9.35502C94.1549 8.98169 94.4616 8.66169 94.8083 8.39502C95.1683 8.12836 95.4749 7.99502 95.7283 7.99502C96.1149 7.99502 96.5549 8.20836 97.0483 8.63502C97.5416 9.06169 97.8949 9.48836 98.1083 9.91502L98.8883 8.59502C99.4083 8.42169 99.9283 8.33502 100.448 8.33502ZM97.7083 16.715C98.1349 16.715 98.6016 16.495 99.1083 16.055C99.6149 15.6017 100.042 15.0484 100.388 14.395C100.735 13.7284 100.908 13.095 100.908 12.495C100.908 12.055 100.802 11.715 100.588 11.475C100.375 11.235 100.068 11.115 99.6683 11.115C99.2016 11.115 98.7749 11.3817 98.3883 11.915C98.0149 12.435 97.7149 13.075 97.4883 13.835C97.2749 14.595 97.1683 15.295 97.1683 15.935C97.1683 16.1884 97.2149 16.3817 97.3083 16.515C97.4149 16.6484 97.5483 16.715 97.7083 16.715ZM113.789 16.335C114.602 15.935 115.289 15.5084 115.849 15.055C116.436 15.255 116.869 15.535 117.149 15.895C117.442 16.2417 117.589 16.6417 117.589 17.095C117.589 17.415 117.362 17.7484 116.909 18.095C116.456 18.4284 115.916 18.7084 115.289 18.935C114.662 19.1617 114.129 19.275 113.689 19.275C113.382 19.275 113.029 19.1617 112.629 18.935C112.242 18.7084 111.902 18.4417 111.609 18.135C111.329 17.8284 111.189 17.5884 111.189 17.415C111.189 17.2817 111.242 17.1017 111.349 16.875C111.469 16.6484 111.596 16.415 111.729 16.175C111.862 15.935 111.949 15.775 111.989 15.695L111.489 15.415C110.782 16.575 110.102 17.5084 109.449 18.215C108.809 18.9217 108.176 19.275 107.549 19.275C107.122 19.275 106.669 19.0884 106.189 18.715C105.722 18.3417 105.322 17.8884 104.989 17.355C104.669 16.8217 104.509 16.3484 104.509 15.935C104.509 14.7484 104.756 13.535 105.249 12.295C105.742 11.055 106.429 10.0284 107.309 9.21502C108.202 8.40169 109.209 7.99502 110.329 7.99502C110.729 7.99502 111.136 8.17502 111.549 8.53502C111.962 8.89502 112.229 9.26169 112.349 9.63502C112.416 9.34169 112.509 9.08836 112.629 8.87502C112.762 8.64836 112.902 8.53502 113.049 8.53502C113.396 8.53502 113.776 8.66169 114.189 8.91502C114.616 9.15502 114.976 9.44169 115.269 9.77502C115.562 10.095 115.709 10.3484 115.709 10.535C115.696 10.7884 115.589 11.2084 115.389 11.795C115.202 12.3817 114.896 13.275 114.469 14.475C114.216 15.1284 113.989 15.7484 113.789 16.335ZM107.649 16.495C108.729 15.8284 109.669 15.0084 110.469 14.035C111.269 13.0484 111.816 11.9617 112.109 10.775C111.749 10.615 111.409 10.535 111.089 10.535C110.462 10.535 109.902 10.815 109.409 11.375C108.916 11.935 108.522 12.6684 108.229 13.575C107.936 14.4817 107.742 15.455 107.649 16.495ZM121.393 19.275C121.033 19.275 120.639 19.1617 120.213 18.935C119.786 18.695 119.419 18.4217 119.113 18.115C118.806 17.795 118.653 17.5284 118.653 17.315C118.653 17.0617 118.706 16.735 118.813 16.335C118.919 15.9217 119.079 15.3884 119.293 14.735C119.506 14.055 119.666 13.515 119.773 13.115C119.879 12.7017 119.933 12.3684 119.933 12.115C119.933 12.0084 119.873 11.895 119.753 11.775C119.633 11.655 119.446 11.495 119.193 11.295C118.899 11.055 118.686 10.8684 118.553 10.735C118.419 10.6017 118.353 10.4684 118.353 10.335C118.353 10.055 118.486 9.72836 118.753 9.35502C119.019 8.98169 119.333 8.66169 119.693 8.39502C120.053 8.12836 120.359 7.99502 120.613 7.99502C120.893 7.99502 121.213 8.12169 121.573 8.37502C121.933 8.62836 122.246 8.92169 122.513 9.25502C122.779 9.57502 122.913 9.82169 122.913 9.99502C122.913 10.5017 122.813 11.1684 122.613 11.995L122.853 12.115C123.159 11.6217 123.493 11.035 123.853 10.355C124.226 9.66169 124.453 9.23502 124.533 9.07502L124.913 8.35502C125.833 8.32836 126.519 8.49502 126.973 8.85502C127.426 9.21502 127.653 9.69502 127.653 10.295C127.653 10.8817 127.459 11.4684 127.073 12.055C126.113 12.375 125.293 12.695 124.613 13.015C123.946 13.3217 123.273 13.6884 122.593 14.115C122.553 15.595 122.433 16.8284 122.233 17.815C122.046 18.7884 121.766 19.275 121.393 19.275Z" fill="black"/>
<path d="M27.3 3.54C27.46 4.51333 27.54 5.45333 27.54 6.36C27.54 8.34667 27.22 10.16 26.58 11.8C25.94 13.44 25.1067 14.7333 24.08 15.68C23.0533 16.6267 22.0067 17.1 20.94 17.1C20.4067 17.1 19.7867 16.9067 19.08 16.52C18.3867 16.12 17.7867 15.6467 17.28 15.1C16.7733 14.54 16.52 14.0467 16.52 13.62C16.52 12.6867 16.68 11.1867 17 9.12C17.32 7.05333 17.7 5.26 18.14 3.74C18.58 3.52667 19.04 3.42 19.52 3.42C20.0267 3.42 20.4667 3.56 20.84 3.84C21.2133 4.10667 21.4667 4.48667 21.6 4.98C21.2133 5.87333 20.8333 7.13333 20.46 8.76C20.1 10.3867 19.92 11.7133 19.92 12.74C19.92 13.74 20.1133 14.24 20.5 14.24C21.0733 14.24 21.6333 13.8733 22.18 13.14C22.7267 12.3933 23.1733 11.4333 23.52 10.26C23.8667 9.07333 24.04 7.87333 24.04 6.66C24.04 5.75333 23.9333 4.9 23.72 4.1C24.3867 3.36667 25.0933 3 25.84 3C26.36 3 26.8467 3.18 27.3 3.54ZM37.1536 12.78C37.7403 12.98 38.1736 13.26 38.4536 13.62C38.7469 13.9667 38.8936 14.3667 38.8936 14.82C38.8936 15.14 38.6669 15.4733 38.2136 15.82C37.7603 16.1533 37.2203 16.4333 36.5936 16.66C35.9669 16.8867 35.4336 17 34.9936 17C34.6869 17 34.3336 16.88 33.9336 16.64C33.5336 16.4 33.1869 16.1267 32.8936 15.82C32.6136 15.5 32.4736 15.2533 32.4736 15.08C32.4736 14.9467 32.6203 14.4267 32.9136 13.52C33.4336 11.9333 33.6936 10.9333 33.6936 10.52C33.6936 10.36 33.6536 10.28 33.5736 10.28C33.0403 10.28 32.0469 11.2133 30.5936 13.08C30.5403 13.2933 30.4803 13.56 30.4136 13.88C30.3603 14.2 30.3203 14.4267 30.2936 14.56C30.1469 15.3467 30.0069 15.9533 29.8736 16.38C29.7536 16.7933 29.5936 17 29.3936 17C29.0469 17 28.6536 16.8867 28.2136 16.66C27.7869 16.42 27.4136 16.1467 27.0936 15.84C26.7869 15.52 26.6336 15.2533 26.6336 15.04C26.6336 14.8 26.7203 14.4467 26.8936 13.98C27.0669 13.5133 27.3269 12.8733 27.6736 12.06C27.9403 11.4333 28.1403 10.9467 28.2736 10.6C28.4069 10.24 28.4736 9.98667 28.4736 9.84C28.4736 9.73333 28.4069 9.62 28.2736 9.5C28.1536 9.36667 27.9669 9.20667 27.7136 9.02C27.4203 8.79333 27.2003 8.61333 27.0536 8.48C26.9203 8.34667 26.8536 8.20667 26.8536 8.06C26.8536 7.78 26.9803 7.45333 27.2336 7.08C27.5003 6.70667 27.8069 6.38667 28.1536 6.12C28.5136 5.85333 28.8203 5.72 29.0736 5.72C29.3536 5.72 29.6736 5.84667 30.0336 6.1C30.4069 6.35333 30.7269 6.64667 30.9936 6.98C31.2736 7.3 31.4136 7.54667 31.4136 7.72C31.4136 8.04 31.3736 8.43333 31.2936 8.9C31.2269 9.36667 31.1336 9.82667 31.0136 10.28C31.9869 9 32.7936 8.01333 33.4336 7.32C34.0736 6.61333 34.5736 6.26 34.9336 6.26C35.1869 6.26 35.4936 6.38667 35.8536 6.64C36.2136 6.89333 36.5203 7.18667 36.7736 7.52C37.0403 7.84 37.1736 8.08667 37.1736 8.26C37.1603 8.48667 37.0669 8.87333 36.8936 9.42C36.7203 9.96667 36.4736 10.6933 36.1536 11.6C35.7269 12.7733 35.4536 13.5667 35.3336 13.98C35.7469 13.7667 36.0669 13.5867 36.2936 13.44C36.5336 13.28 36.8203 13.06 37.1536 12.78ZM49.2459 6.06C49.9526 6.06 50.5793 6.22667 51.1259 6.56C51.6726 6.89333 52.0926 7.35333 52.3859 7.94C52.6926 8.51333 52.8459 9.16 52.8459 9.88C52.8459 10.9467 52.5393 12.04 51.9259 13.16C51.3259 14.2667 50.5326 15.1867 49.5459 15.92C48.5726 16.64 47.5593 17 46.5059 17C46.0526 17 45.5993 16.82 45.1459 16.46C44.9859 17.1267 44.8593 17.8067 44.7659 18.5C44.6859 19.2067 44.6393 19.62 44.6259 19.74C44.5193 20.6467 44.4126 21.3 44.3059 21.7C44.2126 22.1 44.0593 22.3 43.8459 22.3C43.4993 22.3 43.1126 22.1867 42.6859 21.96C42.2726 21.7333 41.9193 21.46 41.6259 21.14C41.3193 20.8333 41.1659 20.5667 41.1659 20.34C41.1659 20.0867 41.2793 19.5267 41.5059 18.66C41.7326 17.7933 42.0793 16.54 42.5459 14.9C42.9593 13.4333 43.2793 12.28 43.5059 11.44C43.7326 10.6 43.8459 10.0667 43.8459 9.84C43.8459 9.73333 43.7859 9.62667 43.6659 9.52C43.5593 9.4 43.3793 9.23333 43.1259 9.02C42.8459 8.79333 42.6393 8.61333 42.5059 8.48C42.3726 8.34667 42.3059 8.20667 42.3059 8.06C42.3059 7.78 42.4326 7.45333 42.6859 7.08C42.9526 6.70667 43.2593 6.38667 43.6059 6.12C43.9659 5.85333 44.2726 5.72 44.5259 5.72C44.9126 5.72 45.3526 5.93333 45.8459 6.36C46.3393 6.78667 46.6926 7.21333 46.9059 7.64L47.6859 6.32C48.2059 6.14667 48.7259 6.06 49.2459 6.06ZM46.5059 14.44C46.9326 14.44 47.3993 14.22 47.9059 13.78C48.4126 13.3267 48.8393 12.7733 49.1859 12.12C49.5326 11.4533 49.7059 10.82 49.7059 10.22C49.7059 9.78 49.5993 9.44 49.3859 9.2C49.1726 8.96 48.8659 8.84 48.4659 8.84C47.9993 8.84 47.5726 9.10667 47.1859 9.64C46.8126 10.16 46.5126 10.8 46.2859 11.56C46.0726 12.32 45.9659 13.02 45.9659 13.66C45.9659 13.9133 46.0126 14.1067 46.1059 14.24C46.2126 14.3733 46.3459 14.44 46.5059 14.44ZM55.3866 17C55.0266 17 54.6332 16.8867 54.2066 16.66C53.7799 16.42 53.4132 16.1467 53.1066 15.84C52.7999 15.52 52.6466 15.2533 52.6466 15.04C52.6466 14.7867 52.6999 14.46 52.8066 14.06C52.9132 13.6467 53.0732 13.1133 53.2866 12.46C53.4999 11.78 53.6599 11.24 53.7666 10.84C53.8732 10.4267 53.9266 10.0933 53.9266 9.84C53.9266 9.73333 53.8666 9.62 53.7466 9.5C53.6266 9.38 53.4399 9.22 53.1866 9.02C52.8932 8.78 52.6799 8.59333 52.5466 8.46C52.4132 8.32667 52.3466 8.19333 52.3466 8.06C52.3466 7.78 52.4799 7.45333 52.7466 7.08C53.0132 6.70667 53.3266 6.38667 53.6866 6.12C54.0466 5.85333 54.3532 5.72 54.6066 5.72C54.8866 5.72 55.2066 5.84667 55.5666 6.1C55.9266 6.35333 56.2399 6.64667 56.5066 6.98C56.7732 7.3 56.9066 7.54667 56.9066 7.72C56.9066 8.22667 56.8066 8.89333 56.6066 9.72L56.8466 9.84C57.1532 9.34667 57.4866 8.76 57.8466 8.08C58.2199 7.38667 58.4466 6.96 58.5266 6.8L58.9066 6.08C59.8266 6.05333 60.5132 6.22 60.9666 6.58C61.4199 6.94 61.6466 7.42 61.6466 8.02C61.6466 8.60667 61.4532 9.19333 61.0666 9.78C60.1066 10.1 59.2866 10.42 58.6066 10.74C57.9399 11.0467 57.2666 11.4133 56.5866 11.84C56.5466 13.32 56.4266 14.5533 56.2266 15.54C56.0399 16.5133 55.7599 17 55.3866 17ZM64.7708 5.7C65.7174 5.80667 66.5774 6.09333 67.3508 6.56C68.1374 7.01333 68.7508 7.56 69.1908 8.2C69.6308 8.84 69.8508 9.48 69.8508 10.12C69.8508 11.08 69.6041 12.1 69.1108 13.18C68.6174 14.26 67.9308 15.1667 67.0508 15.9C66.1708 16.6333 65.1908 17 64.1108 17C63.5774 17 63.0108 16.8067 62.4108 16.42C61.8108 16.02 61.3041 15.54 60.8908 14.98C60.4908 14.4067 60.2908 13.9 60.2908 13.46C60.2908 12.6467 60.3908 11.8133 60.5908 10.96C60.7908 10.0933 61.0974 9.25333 61.5108 8.44C61.8974 8.22667 62.2841 8.12 62.6708 8.12C62.8441 8.12 63.0041 8.14 63.1508 8.18C63.0974 8.02 63.0708 7.83333 63.0708 7.62C63.0708 7.19333 63.2174 6.80667 63.5108 6.46C63.8174 6.11333 64.2374 5.86 64.7708 5.7ZM63.3908 14.72C64.4974 14.3467 65.3574 13.7067 65.9708 12.8C66.5841 11.8933 66.9908 10.8133 67.1908 9.56C66.5908 9.13333 65.7774 8.92 64.7508 8.92C64.4974 8.92 64.3041 8.92667 64.1708 8.94C64.3174 9.20667 64.3908 9.50667 64.3908 9.84C64.0441 10.3867 63.7774 10.9933 63.5908 11.66C63.4041 12.3133 63.3108 12.9733 63.3108 13.64C63.3108 14.04 63.3374 14.4 63.3908 14.72ZM72.8056 5.14C72.5523 5.14 72.2456 5.04 71.8856 4.84C71.539 4.62667 71.239 4.38 70.9856 4.1C70.7323 3.80667 70.6056 3.54667 70.6056 3.32C70.6056 2.96 70.699 2.6 70.8856 2.24C71.0723 1.88 71.3056 1.62 71.5856 1.46C71.719 1.39333 71.9323 1.36 72.2256 1.36C72.7056 1.36 73.1856 1.46667 73.6656 1.68C74.159 1.89333 74.459 2.16 74.5656 2.48C74.5923 2.54667 74.6056 2.64667 74.6056 2.78C74.6056 3.08667 74.5123 3.42667 74.3256 3.8C74.139 4.17333 73.9056 4.49333 73.6256 4.76C73.3456 5.01333 73.0723 5.14 72.8056 5.14ZM68.5056 22.38C67.879 22.38 67.2323 22.2267 66.5656 21.92C65.8856 21.6133 65.3256 21.22 64.8856 20.74C64.4323 20.2733 64.2056 19.8067 64.2056 19.34C64.2056 18.8467 64.399 18.4333 64.7856 18.1C65.1723 17.78 65.639 17.62 66.1856 17.62C66.4123 17.62 66.6256 17.6467 66.8256 17.7C67.1856 18.6333 67.4656 19.28 67.6656 19.64C67.8523 20 68.0856 20.18 68.3656 20.18C68.6723 20.18 68.959 19.6867 69.2256 18.7C69.4923 17.7133 69.7523 16.4133 70.0056 14.8C70.059 14.4267 70.199 13.6 70.4256 12.32C70.6923 10.9067 70.819 10.06 70.8056 9.78C70.8056 9.67333 70.7523 9.56667 70.6456 9.46C70.539 9.35333 70.359 9.19333 70.1056 8.98C69.839 8.78 69.6323 8.61333 69.4856 8.48C69.3523 8.33333 69.2856 8.18667 69.2856 8.04C69.2856 7.76 69.4056 7.43333 69.6456 7.06C69.8856 6.68667 70.179 6.37333 70.5256 6.12C70.8856 5.85333 71.2123 5.72 71.5056 5.72C71.7856 5.72 72.119 5.85333 72.5056 6.12C72.9056 6.37333 73.2523 6.67333 73.5456 7.02C73.8523 7.35333 74.0056 7.61333 74.0056 7.8C74.019 8.02667 73.8723 8.84 73.5656 10.24C73.5123 10.48 73.399 11.02 73.2256 11.86C73.0523 12.6867 72.9056 13.48 72.7856 14.24C72.6523 15.0267 72.5056 16.06 72.3456 17.34C72.2123 18.34 72.1056 19.08 72.0256 19.56C71.9456 20.04 71.8456 20.3933 71.7256 20.62C71.499 21.0333 71.039 21.4267 70.3456 21.8C69.6523 22.1867 69.039 22.38 68.5056 22.38ZM77.9366 17C77.2966 17 76.6299 16.7933 75.9366 16.38C75.2432 15.9533 74.6699 15.4333 74.2166 14.82C73.7632 14.2067 73.5366 13.6267 73.5366 13.08C73.5366 12.1067 73.7632 11.04 74.2166 9.88C74.6832 8.72 75.3232 7.74 76.1366 6.94C76.9499 6.12667 77.8699 5.72 78.8966 5.72C79.6299 5.72 80.2899 5.88 80.8766 6.2C81.4766 6.52 81.9432 6.92 82.2766 7.4C82.6099 7.88 82.7766 8.34667 82.7766 8.8C82.7766 9.36 82.5232 9.91333 82.0166 10.46C81.5099 10.9933 80.8032 11.4667 79.8966 11.88C78.9899 12.28 77.9566 12.5667 76.7966 12.74C76.7832 12.9 76.7766 13.14 76.7766 13.46C76.7766 13.86 76.7899 14.16 76.8166 14.36C77.4832 14.2933 78.1432 14.1133 78.7966 13.82C79.4499 13.5267 80.1632 13.1133 80.9366 12.58C81.4566 12.74 81.8499 12.9933 82.1166 13.34C82.3832 13.6867 82.5166 14.1 82.5166 14.58C82.5166 14.98 82.2699 15.3733 81.7766 15.76C81.2966 16.1333 80.6966 16.4333 79.9766 16.66C79.2566 16.8867 78.5766 17 77.9366 17ZM77.0966 11.24C77.9099 10.9467 78.5899 10.5733 79.1366 10.12C79.6832 9.66667 79.9566 9.28 79.9566 8.96C79.9566 8.58667 79.6966 8.33333 79.1766 8.2C78.6699 8.57333 78.2366 9.02 77.8766 9.54C77.5299 10.06 77.2699 10.6267 77.0966 11.24ZM86.7672 9.14C86.3272 11.1533 86.0405 12.7933 85.9072 14.06C86.7605 13.6467 87.4472 13.22 87.9672 12.78C88.5539 12.98 88.9872 13.26 89.2672 13.62C89.5605 13.9667 89.7072 14.3667 89.7072 14.82C89.7072 15.14 89.4805 15.4733 89.0272 15.82C88.5739 16.1533 88.0339 16.4333 87.4072 16.66C86.7805 16.8867 86.2472 17 85.8072 17C85.4205 17 84.9872 16.8867 84.5072 16.66C84.0405 16.42 83.6405 16.1467 83.3072 15.84C82.9739 15.52 82.8072 15.2467 82.8072 15.02C82.8072 14.8333 82.8739 14.4333 83.0072 13.82C83.1539 13.1933 83.2805 12.66 83.3872 12.22C83.5072 11.7667 83.5939 11.4333 83.6472 11.22L84.1272 9.3L82.9072 9.38C82.6805 9.27333 82.5072 9.10667 82.3872 8.88C82.2672 8.65333 82.2072 8.39333 82.2072 8.1C82.2072 7.56667 82.4005 7.11333 82.7872 6.74C83.2672 6.76667 83.8539 6.79333 84.5472 6.82C84.5472 5.96667 84.6405 5.02667 84.8272 4C85.0139 2.96 85.2205 2.44 85.4472 2.44C85.7272 2.44 86.0805 2.56 86.5072 2.8C86.9339 3.04 87.3072 3.32 87.6272 3.64C87.9472 3.96 88.1072 4.24 88.1072 4.48C88.1072 4.78667 88.0472 5.1 87.9272 5.42C87.8205 5.72667 87.6405 6.15333 87.3872 6.7C87.6139 6.67333 88.1872 6.58 89.1072 6.42L89.5672 6.34C89.8072 6.47333 89.9872 6.66667 90.1072 6.92C90.2405 7.17333 90.3072 7.44667 90.3072 7.74C90.3072 7.98 90.2605 8.21333 90.1672 8.44C90.0739 8.66667 89.9339 8.86 89.7472 9.02L86.7672 9.14ZM100.448 6.06C101.155 6.06 101.782 6.22667 102.328 6.56C102.875 6.89333 103.295 7.35333 103.588 7.94C103.895 8.51333 104.048 9.16 104.048 9.88C104.048 10.9467 103.742 12.04 103.128 13.16C102.528 14.2667 101.735 15.1867 100.748 15.92C99.7749 16.64 98.7616 17 97.7083 17C97.2549 17 96.8016 16.82 96.3483 16.46C96.1883 17.1267 96.0616 17.8067 95.9683 18.5C95.8883 19.2067 95.8416 19.62 95.8283 19.74C95.7216 20.6467 95.6149 21.3 95.5083 21.7C95.4149 22.1 95.2616 22.3 95.0483 22.3C94.7016 22.3 94.3149 22.1867 93.8883 21.96C93.4749 21.7333 93.1216 21.46 92.8283 21.14C92.5216 20.8333 92.3683 20.5667 92.3683 20.34C92.3683 20.0867 92.4816 19.5267 92.7083 18.66C92.9349 17.7933 93.2816 16.54 93.7483 14.9C94.1616 13.4333 94.4816 12.28 94.7083 11.44C94.9349 10.6 95.0483 10.0667 95.0483 9.84C95.0483 9.73333 94.9883 9.62667 94.8683 9.52C94.7616 9.4 94.5816 9.23333 94.3283 9.02C94.0483 8.79333 93.8416 8.61333 93.7083 8.48C93.5749 8.34667 93.5083 8.20667 93.5083 8.06C93.5083 7.78 93.6349 7.45333 93.8883 7.08C94.1549 6.70667 94.4616 6.38667 94.8083 6.12C95.1683 5.85333 95.4749 5.72 95.7283 5.72C96.1149 5.72 96.5549 5.93333 97.0483 6.36C97.5416 6.78667 97.8949 7.21333 98.1083 7.64L98.8883 6.32C99.4083 6.14667 99.9283 6.06 100.448 6.06ZM97.7083 14.44C98.1349 14.44 98.6016 14.22 99.1083 13.78C99.6149 13.3267 100.042 12.7733 100.388 12.12C100.735 11.4533 100.908 10.82 100.908 10.22C100.908 9.78 100.802 9.44 100.588 9.2C100.375 8.96 100.068 8.84 99.6683 8.84C99.2016 8.84 98.7749 9.10667 98.3883 9.64C98.0149 10.16 97.7149 10.8 97.4883 11.56C97.2749 12.32 97.1683 13.02 97.1683 13.66C97.1683 13.9133 97.2149 14.1067 97.3083 14.24C97.4149 14.3733 97.5483 14.44 97.7083 14.44ZM113.789 14.06C114.602 13.66 115.289 13.2333 115.849 12.78C116.436 12.98 116.869 13.26 117.149 13.62C117.442 13.9667 117.589 14.3667 117.589 14.82C117.589 15.14 117.362 15.4733 116.909 15.82C116.456 16.1533 115.916 16.4333 115.289 16.66C114.662 16.8867 114.129 17 113.689 17C113.382 17 113.029 16.8867 112.629 16.66C112.242 16.4333 111.902 16.1667 111.609 15.86C111.329 15.5533 111.189 15.3133 111.189 15.14C111.189 15.0067 111.242 14.8267 111.349 14.6C111.469 14.3733 111.596 14.14 111.729 13.9C111.862 13.66 111.949 13.5 111.989 13.42L111.489 13.14C110.782 14.3 110.102 15.2333 109.449 15.94C108.809 16.6467 108.176 17 107.549 17C107.122 17 106.669 16.8133 106.189 16.44C105.722 16.0667 105.322 15.6133 104.989 15.08C104.669 14.5467 104.509 14.0733 104.509 13.66C104.509 12.4733 104.756 11.26 105.249 10.02C105.742 8.78 106.429 7.75333 107.309 6.94C108.202 6.12667 109.209 5.72 110.329 5.72C110.729 5.72 111.136 5.9 111.549 6.26C111.962 6.62 112.229 6.98667 112.349 7.36C112.416 7.06667 112.509 6.81333 112.629 6.6C112.762 6.37333 112.902 6.26 113.049 6.26C113.396 6.26 113.776 6.38667 114.189 6.64C114.616 6.88 114.976 7.16667 115.269 7.5C115.562 7.82 115.709 8.07333 115.709 8.26C115.696 8.51333 115.589 8.93333 115.389 9.52C115.202 10.1067 114.896 11 114.469 12.2C114.216 12.8533 113.989 13.4733 113.789 14.06ZM107.649 14.22C108.729 13.5533 109.669 12.7333 110.469 11.76C111.269 10.7733 111.816 9.68667 112.109 8.5C111.749 8.34 111.409 8.26 111.089 8.26C110.462 8.26 109.902 8.54 109.409 9.1C108.916 9.66 108.522 10.3933 108.229 11.3C107.936 12.2067 107.742 13.18 107.649 14.22ZM121.393 17C121.033 17 120.639 16.8867 120.213 16.66C119.786 16.42 119.419 16.1467 119.113 15.84C118.806 15.52 118.653 15.2533 118.653 15.04C118.653 14.7867 118.706 14.46 118.813 14.06C118.919 13.6467 119.079 13.1133 119.293 12.46C119.506 11.78 119.666 11.24 119.773 10.84C119.879 10.4267 119.933 10.0933 119.933 9.84C119.933 9.73333 119.873 9.62 119.753 9.5C119.633 9.38 119.446 9.22 119.193 9.02C118.899 8.78 118.686 8.59333 118.553 8.46C118.419 8.32667 118.353 8.19333 118.353 8.06C118.353 7.78 118.486 7.45333 118.753 7.08C119.019 6.70667 119.333 6.38667 119.693 6.12C120.053 5.85333 120.359 5.72 120.613 5.72C120.893 5.72 121.213 5.84667 121.573 6.1C121.933 6.35333 122.246 6.64667 122.513 6.98C122.779 7.3 122.913 7.54667 122.913 7.72C122.913 8.22667 122.813 8.89333 122.613 9.72L122.853 9.84C123.159 9.34667 123.493 8.76 123.853 8.08C124.226 7.38667 124.453 6.96 124.533 6.8L124.913 6.08C125.833 6.05333 126.519 6.22 126.973 6.58C127.426 6.94 127.653 7.42 127.653 8.02C127.653 8.60667 127.459 9.19333 127.073 9.78C126.113 10.1 125.293 10.42 124.613 10.74C123.946 11.0467 123.273 11.4133 122.593 11.84C122.553 13.32 122.433 14.5533 122.233 15.54C122.046 16.5133 121.766 17 121.393 17Z" fill="white"/>
</svg>
