<svg width="487" height="91" viewBox="0 0 487 91" fill="none" xmlns="http://www.w3.org/2000/svg">
<path d="M0 65.1275H2.30398L10.0799 8.92157L9.4399 7.13725H4.63995V3.56863H12.9599L21.0238 65.1275H23.6798V68.6961H0V65.1275ZM16.6398 65.1275L17.2798 63.3431L14.9438 45.0539H6.65593L4.15996 63.3431L4.79995 65.1275H16.6398ZM14.5279 41.4853L11.1999 13.9176H10.8799L7.10393 41.4853H14.5279Z" fill="white"/>
<path d="M53.1835 91C50.9008 91 49.0875 89.751 47.7435 87.253C46.4209 84.7549 45.7062 81.2458 45.5995 76.7255L45.4395 69.5882L48.6395 71.3726V78.5098C48.6395 81.3647 49.0448 83.5654 49.8555 85.1118C50.6875 86.6582 51.8608 87.4314 53.3755 87.4314C54.9541 87.4314 56.1808 86.5987 57.0554 84.9333C57.9514 83.268 58.3994 81.0079 58.3994 78.1529C58.3994 75.7739 58.0474 73.7516 57.3434 72.0863C56.6608 70.4209 55.6474 69.3801 54.3034 68.9637L51.5515 68.0716C49.7595 67.4768 48.4795 66.1088 47.7115 63.9677C46.9649 61.8265 46.5915 58.3471 46.5915 53.5294L49.9195 52.6373V51.7451C48.9808 50.7935 48.2128 49.0686 47.6155 46.5706C47.0182 44.0726 46.7195 41.3366 46.7195 38.3628C46.7195 35.3889 46.9862 32.6827 47.5195 30.2441C48.0528 27.7461 48.7782 25.8131 49.6955 24.4451C50.6341 23.0176 51.6688 22.3039 52.7995 22.3039C53.7381 22.3039 54.6021 22.7797 55.3914 23.7314C56.1808 24.6235 56.8528 25.9023 57.4074 27.5676C57.6634 25.8428 58.0367 24.4748 58.5274 23.4637C59.0181 22.4526 59.5621 21.9173 60.1594 21.8578L62.3994 21.4118L61.9194 29.4412H58.5594L58.1754 30.5118C58.6447 32.9503 58.8794 35.5673 58.8794 38.3628C58.8794 43.3588 58.3567 47.1654 57.3114 49.7824C56.2874 52.3994 54.7834 53.9458 52.7995 54.4216L49.4395 55.3137C49.5248 56.9791 49.7702 58.2579 50.1755 59.15C50.6021 60.0422 51.2955 60.6369 52.2555 60.9343L54.9434 61.7373C56.9914 62.332 58.5061 63.819 59.4874 66.198C60.4687 68.5771 60.9594 71.551 60.9594 75.1196C60.9594 80.0562 60.2661 83.9222 58.8794 86.7177C57.4927 89.5726 55.5941 91 53.1835 91ZM52.7995 50.8529C53.7808 50.8529 54.5274 49.7824 55.0394 47.6412C55.5728 45.4405 55.8394 42.3477 55.8394 38.3628C55.8394 34.3778 55.5728 31.3147 55.0394 29.1735C54.5274 26.9729 53.7808 25.8726 52.7995 25.8726C51.8181 25.8726 51.0608 26.9729 50.5275 29.1735C50.0155 31.3147 49.7595 34.3778 49.7595 38.3628C49.7595 42.3477 50.0155 45.4405 50.5275 47.6412C51.0608 49.7824 51.8181 50.8529 52.7995 50.8529Z" fill="white"/>
<path d="M89.7333 69.5882C88.1547 69.5882 86.9387 68.7258 86.0854 67.001C85.232 65.2762 84.8054 62.7781 84.8054 59.5069C84.8054 57.1278 85.0294 55.1056 85.4774 53.4402C85.9254 51.7154 86.64 50.1987 87.6213 48.8902C88.624 47.5817 89.9787 46.3327 91.6853 45.1431L95.0453 42.8235V36.5784C95.0453 33.1288 94.7573 30.482 94.1813 28.6382C93.6266 26.7944 92.8053 25.8726 91.7173 25.8726C90.6933 25.8726 89.8933 26.5863 89.3173 28.0137C88.7627 29.3817 88.4853 31.3444 88.4853 33.902V40.1471L85.6054 43.7157L85.7654 35.6863C85.8507 31.4039 86.416 28.1029 87.4613 25.7833C88.5067 23.4637 89.9467 22.3039 91.7813 22.3039C93.744 22.3039 95.2586 23.5529 96.3253 26.051C97.3919 28.4895 97.9252 31.9987 97.9252 36.5784V63.3431L98.5652 65.1275H100.485V68.6961H95.3653V61.2912H95.0453C94.5546 63.8487 93.8506 65.8709 92.9333 67.3578C92.0373 68.8448 90.9707 69.5882 89.7333 69.5882ZM90.4693 65.1275C91.3653 65.1275 92.1546 64.384 92.8373 62.8971C93.5413 61.3507 94.0853 59.2987 94.4693 56.7412C94.8533 54.1242 95.0453 51.2693 95.0453 48.1765V46.8382C93.2533 47.9683 91.8346 49.0984 90.7893 50.2284C89.744 51.3585 88.9867 52.6075 88.5173 53.9755C88.0693 55.3435 87.8454 56.9494 87.8454 58.7931C87.8454 60.8154 88.0693 62.3915 88.5173 63.5216C88.9653 64.5922 89.616 65.1275 90.4693 65.1275Z" fill="white"/>
<path d="M128.45 69.5882C127.192 69.5882 126.189 68.6366 125.442 66.7333C124.696 64.7706 124.322 62.1536 124.322 58.8824V27.6569H121.443V25.8726C122.403 24.9804 123.224 23.7909 123.906 22.3039C124.589 20.817 125.144 19.0029 125.57 16.8618C126.018 14.6611 126.349 12.0144 126.562 8.92157H127.202V24.0882H132.322V27.6569H127.202V58.8824C127.202 60.7856 127.373 62.3023 127.714 63.4324C128.077 64.5624 128.536 65.1275 129.09 65.1275C129.986 65.1275 130.722 63.7892 131.298 61.1128C131.874 58.3768 132.173 54.3026 132.194 48.8902L133.282 49.0686C133.282 53.5294 133.112 57.2765 132.77 60.3098C132.429 63.3431 131.896 65.6628 131.17 67.2686C130.466 68.815 129.56 69.5882 128.45 69.5882Z" fill="white"/>
<path d="M155.535 65.1275H157.455L158.095 63.3431V7.13725H155.535V3.56863C156.431 3.56863 157.359 3.27124 158.319 2.67647C159.3 2.02222 160.185 1.13006 160.975 0V29.4412H161.295C161.828 27.2405 162.585 25.5157 163.567 24.2667C164.548 22.9582 165.604 22.3039 166.735 22.3039C168.505 22.3039 169.849 23.6719 170.766 26.4078C171.705 29.1438 172.174 33.1288 172.174 38.3628V63.3431L172.814 65.1275H174.734V68.6961H155.535V65.1275ZM168.655 65.1275L169.295 63.3431V40.1471C169.295 36.1026 168.985 33.0098 168.367 30.8686C167.769 28.7275 166.905 27.6569 165.775 27.6569C164.751 27.6569 163.876 28.2516 163.151 29.4412C162.447 30.5712 161.903 32.2663 161.519 34.5265C161.156 36.7866 160.975 39.5523 160.975 42.8235V63.3431L161.615 65.1275H168.655Z" fill="white"/>
<path d="M204.574 69.5882C203.081 69.5882 201.769 68.6366 200.638 66.7333C199.529 64.8301 198.665 62.1536 198.046 58.7039C197.449 55.2543 197.15 51.2395 197.15 46.6598C197.15 41.6637 197.47 37.3516 198.11 33.7235C198.75 30.036 199.657 27.2108 200.83 25.248C202.004 23.2853 203.369 22.3039 204.926 22.3039C206.334 22.3039 207.561 23.1069 208.606 24.7127C209.652 26.2592 210.452 28.5193 211.006 31.4931C211.582 34.467 211.87 37.9464 211.87 41.9314L210.91 44.6078H200.35C200.329 44.9647 200.318 45.2918 200.318 45.5892C200.318 45.8866 200.318 46.1543 200.318 46.3922C200.318 50.0203 200.532 53.2618 200.958 56.1167C201.385 58.9121 201.982 61.1128 202.75 62.7186C203.518 64.3245 204.393 65.1275 205.374 65.1275C206.313 65.1275 207.166 64.4137 207.934 62.9863C208.724 61.4994 209.385 59.5069 209.918 57.0088C210.452 54.4513 210.836 51.5964 211.07 48.4441L212.19 49.0686C211.785 55.4327 210.932 60.4585 209.63 64.1461C208.35 67.7742 206.665 69.5882 204.574 69.5882ZM208.03 41.0392L208.67 39.2549C208.67 35.032 208.34 31.7608 207.678 29.4412C207.038 27.1216 206.153 25.9618 205.022 25.9618C204.254 25.9618 203.55 26.5565 202.91 27.7461C202.292 28.8761 201.769 30.5712 201.342 32.8314C200.916 35.0915 200.628 37.8275 200.478 41.0392H208.03Z" fill="white"/>
<path d="M272.471 70.4804C270.38 70.4804 268.738 68.9637 267.543 65.9304C266.348 62.8376 265.751 58.6147 265.751 53.2618C265.751 47.9088 266.359 43.5373 267.575 40.1471C268.791 36.7569 270.476 34.7346 272.631 34.0804C272.29 32.7719 272.044 31.8203 271.895 31.2255C271.212 28.4895 270.711 26.0807 270.391 23.999C270.092 21.8578 269.943 19.5382 269.943 17.0402C269.943 12.3415 270.455 8.62418 271.479 5.88823C272.524 3.15229 273.932 1.78431 275.703 1.78431C277.474 1.78431 278.85 3.12255 279.831 5.79902C280.812 8.47549 281.303 12.2523 281.303 17.1294C281.303 19.1516 281.218 21.0549 281.047 22.8392C280.876 24.5641 280.62 26.1699 280.279 27.6569H289.751V31.2255H287.031L281.271 52.8157L283.319 60.7559C283.788 62.5997 284.247 63.9379 284.695 64.7706C285.164 65.6033 285.676 66.0196 286.231 66.0196C286.999 66.0196 287.607 65.5141 288.055 64.5029C288.503 63.4324 288.855 61.8562 289.111 59.7745L290.071 60.6667C289.836 63.9379 289.271 66.4062 288.375 68.0716C287.5 69.6775 286.369 70.4804 284.983 70.4804C284.001 70.4804 283.159 69.9748 282.455 68.9637C281.772 68.0121 281.122 66.4062 280.503 64.1461L279.447 60.2206C278.871 62.3023 278.274 64.0866 277.655 65.5735C277.036 67.0605 276.3 68.25 275.447 69.1422C274.594 70.0343 273.602 70.4804 272.471 70.4804ZM273.271 66.0196C274.167 66.0196 275.031 65.3059 275.863 63.8784C276.716 62.451 277.527 60.2503 278.295 57.2765C278.338 57.1575 278.37 57.0386 278.391 56.9196C278.434 56.7412 278.466 56.5925 278.487 56.4735L273.527 37.4706C272.204 37.649 271.159 39.0467 270.391 41.6637C269.644 44.2212 269.271 47.7007 269.271 52.102C269.271 56.5628 269.612 60.0124 270.295 62.451C270.999 64.8301 271.991 66.0196 273.271 66.0196ZM284.791 33.0098L284.151 31.2255H279.127C278.7 32.1771 278.295 32.8909 277.911 33.3667C277.698 33.6641 277.474 33.9317 277.239 34.1696C277.004 34.4075 276.77 34.586 276.535 34.7049L280.439 49.7824L284.791 33.0098ZM275.799 32.0284C276.631 31.6121 277.282 30.2144 277.751 27.8353C278.22 25.3967 278.455 22.3039 278.455 18.5569C278.455 14.334 278.199 11.0925 277.687 8.83236C277.175 6.51275 276.439 5.35294 275.479 5.35294C274.626 5.35294 273.964 6.18562 273.495 7.85098C273.026 9.45686 272.791 11.7765 272.791 14.8098C272.791 17.0105 273.004 19.3598 273.431 21.8578C273.858 24.2964 274.583 27.4487 275.607 31.3147L275.799 32.0284Z" fill="white"/>
<path d="M342.191 65.1275H344.495L352.271 8.92157L351.631 7.13725H346.831V3.56863H355.151L363.215 65.1275H365.871V68.6961H342.191V65.1275ZM358.831 65.1275L359.471 63.3431L357.135 45.0539H348.847L346.351 63.3431L346.991 65.1275H358.831ZM356.719 41.4853L353.391 13.9176H353.071L349.295 41.4853H356.719Z" fill="white"/>
<path d="M387.631 65.1275H389.551L390.191 63.3431V29.4412H387.631V25.8726C388.442 25.8726 389.295 25.5752 390.191 24.9804C391.108 24.3261 391.962 23.434 392.751 22.3039V30.3333H393.071C393.69 27.7163 394.49 25.7239 395.471 24.3559C396.452 22.9879 397.572 22.3039 398.831 22.3039C400.602 22.3039 401.946 23.6719 402.863 26.4078C403.802 29.1438 404.271 33.1288 404.271 38.3628V63.3431L404.911 65.1275H406.831V68.6961H387.631V65.1275ZM400.751 65.1275L401.391 63.3431V40.1471C401.391 36.1026 401.082 33.0098 400.463 30.8686C399.866 28.7275 399.002 27.6569 397.871 27.6569C396.847 27.6569 395.972 28.2516 395.247 29.4412C394.543 30.5712 393.999 32.2663 393.615 34.5265C393.252 36.7866 393.071 39.5523 393.071 42.8235V63.3431L393.711 65.1275H400.751Z" fill="white"/>
<path d="M429.236 65.1275H431.156L431.796 63.3431V29.4412H429.236V25.8726C430.046 25.8726 430.9 25.5752 431.796 24.9804C432.713 24.3261 433.566 23.434 434.356 22.3039V30.3333H434.676C435.294 27.7163 436.094 25.7239 437.076 24.3559C438.057 22.9879 439.177 22.3039 440.435 22.3039C442.206 22.3039 443.55 23.6719 444.467 26.4078C445.406 29.1438 445.875 33.1288 445.875 38.3628V63.3431L446.515 65.1275H448.435V68.6961H429.236V65.1275ZM442.355 65.1275L442.995 63.3431V40.1471C442.995 36.1026 442.686 33.0098 442.067 30.8686C441.47 28.7275 440.606 27.6569 439.475 27.6569C438.452 27.6569 437.577 28.2516 436.852 29.4412C436.148 30.5712 435.604 32.2663 435.22 34.5265C434.857 36.7866 434.676 39.5523 434.676 42.8235V63.3431L435.316 65.1275H442.355Z" fill="white"/>
<path d="M476.248 69.5882C474.669 69.5882 473.453 68.7258 472.6 67.001C471.747 65.2762 471.32 62.7781 471.32 59.5069C471.32 57.1278 471.544 55.1056 471.992 53.4402C472.44 51.7154 473.155 50.1987 474.136 48.8902C475.139 47.5817 476.493 46.3327 478.2 45.1431L481.56 42.8235V36.5784C481.56 33.1288 481.272 30.482 480.696 28.6382C480.141 26.7944 479.32 25.8726 478.232 25.8726C477.208 25.8726 476.408 26.5863 475.832 28.0137C475.277 29.3817 475 31.3444 475 33.902V40.1471L472.12 43.7157L472.28 35.6863C472.366 31.4039 472.931 28.1029 473.976 25.7833C475.021 23.4637 476.461 22.3039 478.296 22.3039C480.259 22.3039 481.773 23.5529 482.84 26.051C483.907 28.4895 484.44 31.9987 484.44 36.5784V63.3431L485.08 65.1275H487V68.6961H481.88V61.2912H481.56C481.069 63.8487 480.365 65.8709 479.448 67.3578C478.552 68.8448 477.485 69.5882 476.248 69.5882ZM476.984 65.1275C477.88 65.1275 478.669 64.384 479.352 62.8971C480.056 61.3507 480.6 59.2987 480.984 56.7412C481.368 54.1242 481.56 51.2693 481.56 48.1765V46.8382C479.768 47.9683 478.349 49.0984 477.304 50.2284C476.259 51.3585 475.501 52.6075 475.032 53.9755C474.584 55.3435 474.36 56.9494 474.36 58.7931C474.36 60.8154 474.584 62.3915 475.032 63.5216C475.48 64.5922 476.131 65.1275 476.984 65.1275Z" fill="white"/>
<path d="M72.8052 5.13995C72.5518 5.13995 72.2452 5.03995 71.8852 4.83995C71.5803 4.65235 71.3116 4.43898 71.0789 4.19983C71.0095 4.29462 70.9449 4.39967 70.8852 4.51497C70.6985 4.87497 70.6052 5.23497 70.6052 5.59497C70.6052 5.7169 70.6418 5.84846 70.7151 5.98967C71.0009 5.80985 71.2643 5.71995 71.5052 5.71995C71.7852 5.71995 72.1185 5.85328 72.5052 6.11995C72.9052 6.37328 73.2518 6.67328 73.5452 7.01995C73.5599 7.03599 73.5743 7.05186 73.5884 7.06756C73.6006 7.05694 73.6129 7.04608 73.6252 7.03497C73.9052 6.7683 74.1385 6.4483 74.3252 6.07497C74.5118 5.70164 74.6052 5.36164 74.6052 5.05497C74.6052 4.92164 74.5918 4.82164 74.5652 4.75497C74.4947 4.54345 74.3397 4.35523 74.1002 4.19031C73.9605 4.4015 73.8022 4.59138 73.6252 4.75995C73.3452 5.01328 73.0718 5.13995 72.8052 5.13995Z" fill="white"/>
<path d="M69.9834 8.88774C69.8863 8.99709 69.7954 9.11338 69.7106 9.23658C69.8037 9.53104 69.8503 9.82549 69.8503 10.1199C69.8503 10.4099 69.8278 10.7053 69.7828 11.0062C69.8782 11.0824 69.9857 11.1653 70.1052 11.255C70.2943 11.4142 70.4425 11.5437 70.5499 11.6435C70.7311 10.6332 70.8162 10.012 70.8052 9.77995C70.8052 9.67328 70.7518 9.56661 70.6452 9.45995C70.5385 9.35328 70.3585 9.19328 70.1052 8.97995C70.0631 8.94838 70.0225 8.91765 69.9834 8.88774Z" fill="white"/>
<path d="M68.5705 22.379C69.0884 22.3639 69.68 22.1709 70.3452 21.7999C71.0385 21.4266 71.4985 21.0333 71.7252 20.6199C71.8452 20.3933 71.9452 20.0399 72.0252 19.5599C72.1052 19.0799 72.2118 18.3399 72.3452 17.3399C72.5052 16.0599 72.6518 15.0266 72.7852 14.2399C72.9052 13.4799 73.0518 12.6866 73.2252 11.8599C73.3985 11.0199 73.5118 10.4799 73.5652 10.2399C73.6237 9.97253 73.6765 9.72652 73.7234 9.50191C73.9112 9.73785 74.0052 9.92887 74.0052 10.075C74.0108 10.1704 73.988 10.3697 73.937 10.6729C73.7321 11.3301 73.6058 11.9551 73.5579 12.5477C73.502 12.802 73.391 13.3311 73.2252 14.135C73.0518 14.9616 72.9052 15.755 72.7852 16.515C72.6518 17.3016 72.5052 18.335 72.3452 19.615C72.2118 20.615 72.1052 21.355 72.0252 21.835C71.9452 22.315 71.8452 22.6683 71.7252 22.895C71.4985 23.3083 71.0385 23.7016 70.3452 24.075C69.6518 24.4616 69.0385 24.655 68.5052 24.655C67.8785 24.655 67.2318 24.5016 66.5652 24.195C65.8852 23.8883 65.3252 23.495 64.8852 23.015C64.4318 22.5483 64.2052 22.0816 64.2052 21.615C64.2052 21.1765 64.3579 20.8012 64.6633 20.4891C64.73 20.5727 64.8039 20.6563 64.8852 20.7399C65.3252 21.2199 65.8852 21.6133 66.5652 21.9199C67.0619 22.1485 67.5476 22.2918 68.0221 22.3501C68.1274 22.42 68.2417 22.455 68.3652 22.455C68.4346 22.455 68.5031 22.4296 68.5705 22.379Z" fill="white"/>
<path d="M67.021 18.1992C66.9586 18.0431 66.8933 17.8766 66.8252 17.6999C66.6252 17.6466 66.4118 17.6199 66.1852 17.6199C65.6385 17.6199 65.1718 17.7799 64.7852 18.0999C64.4158 18.4183 64.2229 18.8097 64.2063 19.274C64.1744 19.2746 64.1424 19.275 64.1103 19.275C63.577 19.275 63.0103 19.0816 62.4103 18.695C61.8103 18.295 61.3036 17.815 60.8903 17.255C60.4903 16.6816 60.2903 16.175 60.2903 15.735C60.2903 15.203 60.3331 14.6624 60.4187 14.1133C60.5181 14.3829 60.6753 14.6718 60.8903 14.9799C61.3036 15.5399 61.8103 16.0199 62.4103 16.4199C62.7414 16.6333 63.0623 16.7878 63.373 16.8834C63.3784 16.9211 63.3842 16.9583 63.3903 16.995C63.448 16.9755 63.505 16.9553 63.5613 16.9344C63.7481 16.9781 63.9311 16.9999 64.1103 16.9999C65.1903 16.9999 66.1703 16.6333 67.0503 15.8999C67.9303 15.1666 68.617 14.2599 69.1103 13.1799C69.379 12.5918 69.5745 12.0215 69.6968 11.469C69.7991 11.7777 69.8503 12.0863 69.8503 12.395C69.8503 13.355 69.6036 14.375 69.1103 15.455C68.617 16.535 67.9303 17.4416 67.0503 18.175C67.0406 18.1831 67.0308 18.1912 67.021 18.1992Z" fill="white"/>
<path d="M56.6524 11.7985C56.6376 11.863 56.6222 11.9284 56.6061 11.995L56.8461 12.115C56.9751 11.9074 57.1088 11.6834 57.2473 11.4428C57.7033 11.1812 58.1562 10.9469 58.6061 10.7399C59.2506 10.4367 60.0208 10.1334 60.9167 9.83012C60.7872 10.2016 60.6784 10.5782 60.5903 10.9599C60.4842 11.4125 60.4063 11.8594 60.3565 12.3007C59.6955 12.5388 59.1121 12.7769 58.6061 13.015C57.9394 13.3216 57.2661 13.6883 56.5861 14.115C56.5461 15.595 56.4261 16.8283 56.2261 17.815C56.0394 18.7883 55.7594 19.275 55.3861 19.275C55.0261 19.275 54.6328 19.1616 54.2061 18.935C53.7794 18.695 53.4128 18.4216 53.1061 18.115C52.7994 17.795 52.6461 17.5283 52.6461 17.315C52.6461 17.0616 52.6994 16.735 52.8061 16.335C52.8541 16.149 52.9129 15.9388 52.9824 15.7042C53.0204 15.7483 53.0617 15.7936 53.1061 15.8399C53.4128 16.1466 53.7794 16.4199 54.2061 16.6599C54.6328 16.8866 55.0261 16.9999 55.3861 16.9999C55.7594 16.9999 56.0394 16.5133 56.2261 15.5399C56.4261 14.5533 56.5461 13.3199 56.5861 11.8399C56.6082 11.8261 56.6303 11.8123 56.6524 11.7985Z" fill="white"/>
<path d="M56.8659 9.80802C56.8273 9.70763 56.7609 9.59194 56.6667 9.46097C56.6476 9.54547 56.6274 9.6318 56.6061 9.71995L56.8461 9.83995C56.8527 9.82935 56.8593 9.81871 56.8659 9.80802Z" fill="white"/>
<path d="M52.8068 9.27201C52.8946 9.1547 52.9873 9.04289 53.0848 8.93657C53.1174 8.96361 53.1512 8.9914 53.1861 9.01995C53.4394 9.21995 53.6261 9.37995 53.7461 9.49995C53.8661 9.61995 53.9261 9.73328 53.9261 9.83995C53.9261 10.0933 53.8728 10.4266 53.7661 10.8399C53.7095 11.0523 53.6378 11.304 53.5512 11.5952C53.4507 11.5079 53.329 11.4078 53.1861 11.295C53.0123 11.1528 52.8666 11.0293 52.749 10.9246C52.8133 10.5736 52.8455 10.2254 52.8455 9.87995C52.8455 9.67113 52.8326 9.46849 52.8068 9.27201Z" fill="white"/>
<path d="M43.022 8.93555C42.9035 9.06695 42.7913 9.20676 42.6855 9.35497C42.4321 9.7283 42.3055 10.055 42.3055 10.335C42.3055 10.4816 42.3721 10.6216 42.5055 10.755C42.6388 10.8883 42.8455 11.0683 43.1255 11.295C43.2586 11.4071 43.3715 11.5063 43.4642 11.5927C43.4783 11.5407 43.492 11.4898 43.5055 11.4399C43.7321 10.5999 43.8455 10.0666 43.8455 9.83995C43.8455 9.73328 43.7855 9.62661 43.6655 9.51995C43.5588 9.39995 43.3788 9.23328 43.1255 9.01995C43.0898 8.99106 43.0553 8.96292 43.022 8.93555Z" fill="white"/>
<path d="M41.4897 20.9954C41.2735 21.8277 41.1655 22.3676 41.1655 22.615C41.1655 22.8416 41.3188 23.1083 41.6255 23.415C41.9188 23.735 42.2721 24.0083 42.6855 24.235C43.1121 24.4616 43.4988 24.575 43.8455 24.575C44.0588 24.575 44.2121 24.375 44.3055 23.975C44.4121 23.575 44.5188 22.9216 44.6255 22.015C44.6388 21.895 44.6855 21.4816 44.7655 20.775C44.8588 20.0816 44.9855 19.4016 45.1455 18.735C45.5988 19.095 46.0521 19.275 46.5055 19.275C47.5588 19.275 48.5721 18.915 49.5455 18.195C50.5321 17.4616 51.3255 16.5416 51.9255 15.435C52.5388 14.315 52.8455 13.2216 52.8455 12.155C52.8455 11.7765 52.8031 11.4183 52.7184 11.0804C52.5751 11.763 52.3108 12.4562 51.9255 13.1599C51.3255 14.2666 50.5321 15.1866 49.5455 15.9199C48.5721 16.6399 47.5588 16.9999 46.5055 16.9999C46.0521 16.9999 45.5988 16.8199 45.1455 16.4599C44.9855 17.1266 44.8588 17.8066 44.7655 18.4999C44.6855 19.2066 44.6388 19.6199 44.6255 19.7399C44.5188 20.6466 44.4121 21.2999 44.3055 21.6999C44.2121 22.0999 44.0588 22.2999 43.8455 22.2999C43.4988 22.2999 43.1121 22.1866 42.6855 21.9599C42.2721 21.7333 41.9188 21.4599 41.6255 21.1399C41.5763 21.0907 41.531 21.0426 41.4897 20.9954Z" fill="white"/>
<path d="M66.6479 11.5318C66.8956 10.9307 67.0765 10.2734 67.1903 9.55995C66.5903 9.13328 65.777 8.91995 64.7503 8.91995C64.497 8.91995 64.3036 8.92661 64.1703 8.93995C64.317 9.20661 64.3903 9.50661 64.3903 9.83995C64.0436 10.3866 63.777 10.9933 63.5903 11.6599C63.4036 12.3133 63.3103 12.9733 63.3103 13.6399C63.3103 14.0399 63.337 14.3999 63.3903 14.7199C63.3978 14.7174 63.4053 14.7149 63.4128 14.7123C63.4574 14.4522 63.5166 14.193 63.5903 13.935C63.777 13.2683 64.0436 12.6616 64.3903 12.115C64.3903 11.7816 64.317 11.4816 64.1703 11.215C64.3036 11.2016 64.497 11.195 64.7503 11.195C65.4951 11.195 66.1276 11.3072 66.6479 11.5318Z" fill="white"/>
<path d="M73.6926 13.8897C73.5883 14.3996 73.5361 14.888 73.5361 15.355C73.5361 15.9016 73.7628 16.4816 74.2161 17.095C74.6694 17.7083 75.2428 18.2283 75.9361 18.655C76.6294 19.0683 77.2961 19.275 77.9361 19.275C78.5761 19.275 79.2561 19.1616 79.9761 18.935C80.6961 18.7083 81.2961 18.4083 81.7761 18.035C82.2694 17.6483 82.5161 17.255 82.5161 16.855C82.5161 16.375 82.3828 15.9616 82.1161 15.615C82.0928 15.5847 82.0686 15.5552 82.0433 15.5263C81.9642 15.6045 81.8751 15.6823 81.7761 15.7599C81.2961 16.1333 80.6961 16.4333 79.9761 16.6599C79.2561 16.8866 78.5761 16.9999 77.9361 16.9999C77.2961 16.9999 76.6294 16.7933 75.9361 16.3799C75.2428 15.9533 74.6694 15.4333 74.2161 14.8199C73.9802 14.5008 73.8057 14.1908 73.6926 13.8897Z" fill="white"/>
<path d="M81.7581 12.9858C81.8492 12.9037 81.9352 12.8201 82.0161 12.735C82.3813 12.341 82.6149 11.9435 82.7168 11.5425C82.7753 11.5854 82.8386 11.6229 82.9067 11.655L83.5461 11.613C83.5874 11.454 83.6209 11.323 83.6467 11.2199L84.1267 9.29995L82.9067 9.37995C82.8386 9.34789 82.7753 9.31042 82.7168 9.26753C82.6149 9.66847 82.3813 10.0659 82.0161 10.4599C81.5094 10.9933 80.8028 11.4666 79.8961 11.8799C79.7755 11.9332 79.6526 11.9844 79.5275 12.0336C79.418 12.1489 79.2875 12.2694 79.1361 12.395C78.5894 12.8483 77.9094 13.2216 77.0961 13.515C77.1824 13.2096 77.2902 12.9158 77.4195 12.6335C77.2159 12.6728 77.0081 12.7083 76.7961 12.7399C76.7828 12.8999 76.7761 13.1399 76.7761 13.4599C76.7761 13.8599 76.7894 14.1599 76.8161 14.3599C77.4828 14.2933 78.1428 14.1133 78.7961 13.8199C79.4494 13.5266 80.1628 13.1133 80.9361 12.5799C81.2589 12.6793 81.5329 12.8146 81.7581 12.9858Z" fill="white"/>
<path d="M83.1138 15.6389C83.0794 15.785 83.0437 15.937 83.0067 16.095C82.8734 16.7083 82.8067 17.1083 82.8067 17.295C82.8067 17.5216 82.9734 17.795 83.3067 18.115C83.6401 18.4216 84.04 18.695 84.5067 18.935C84.9867 19.1616 85.4201 19.275 85.8067 19.275C86.2467 19.275 86.7801 19.1616 87.4067 18.935C88.0334 18.7083 88.5734 18.4283 89.0267 18.095C89.48 17.7483 89.7067 17.415 89.7067 17.095C89.7067 16.6416 89.5601 16.2416 89.2667 15.895C89.2246 15.8408 89.179 15.7885 89.13 15.738C89.097 15.7652 89.0626 15.7925 89.0267 15.8199C88.5734 16.1533 88.0334 16.4333 87.4067 16.6599C86.7801 16.8866 86.2467 16.9999 85.8067 16.9999C85.4201 16.9999 84.9867 16.8866 84.5067 16.6599C84.04 16.4199 83.6401 16.1466 83.3067 15.8399C83.2346 15.7707 83.1703 15.7037 83.1138 15.6389Z" fill="white"/>
<path d="M86.271 13.8774C86.406 13.1303 86.5712 12.3095 86.7667 11.415L89.7467 11.295C89.9334 11.135 90.0734 10.9416 90.1667 10.715C90.26 10.4883 90.3067 10.255 90.3067 10.015C90.3067 9.72164 90.24 9.4483 90.1067 9.19497C90.0497 9.0747 89.9792 8.96795 89.8952 8.87472C89.8495 8.92585 89.8 8.97426 89.7467 9.01995L86.7667 9.13995C86.3267 11.1533 86.04 12.7933 85.9067 14.0599C86.0317 13.9994 86.1532 13.9385 86.271 13.8774Z" fill="white"/>
<path d="M88.0843 6.59396C88.0358 6.41328 87.9084 6.21288 87.7021 5.99275C87.614 6.20057 87.5089 6.4363 87.3867 6.69995C87.5125 6.68515 87.745 6.64982 88.0843 6.59396Z" fill="white"/>
<path d="M27.5379 8.88318C27.5374 8.9131 27.537 8.94297 27.5364 8.9728C27.5522 8.95491 27.5681 8.93716 27.5841 8.91957C27.6254 8.95194 27.6684 8.9854 27.7131 9.01995C27.9665 9.20661 28.1531 9.36661 28.2731 9.49995C28.4065 9.61995 28.4731 9.73328 28.4731 9.83995C28.4731 9.98661 28.4065 10.2399 28.2731 10.5999C28.186 10.8264 28.0705 11.1126 27.9265 11.4585C27.8616 11.4065 27.7905 11.352 27.7131 11.295C27.586 11.1967 27.4727 11.1073 27.3731 11.0266C27.2175 12.1017 26.953 13.1179 26.5795 14.075C25.9395 15.715 25.1062 17.0083 24.0795 17.955C23.0529 18.9016 22.0062 19.375 20.9395 19.375C20.4062 19.375 19.7862 19.1816 19.0795 18.795C18.3862 18.395 17.7862 17.9216 17.2795 17.375C16.7729 16.815 16.5195 16.3216 16.5195 15.895C16.5195 15.4433 16.557 14.8589 16.6319 14.1418C16.7519 14.4359 16.9677 14.7553 17.2795 15.0999C17.7862 15.6466 18.3862 16.1199 19.0795 16.5199C19.7862 16.9066 20.4062 17.0999 20.9395 17.0999C22.0062 17.0999 23.0529 16.6266 24.0795 15.6799C25.1062 14.7333 25.9395 13.4399 26.5795 11.7999C26.953 10.8428 27.2175 9.82671 27.3731 8.75155C27.4243 8.7931 27.4793 8.83698 27.5379 8.88318Z" fill="white"/>
<path d="M24.024 6.06812C23.9216 6.16206 23.8201 6.26434 23.7195 6.37497C23.8446 6.844 23.933 7.33137 23.9848 7.83706C24.0213 7.44609 24.0395 7.05372 24.0395 6.65995C24.0395 6.46008 24.0343 6.2628 24.024 6.06812Z" fill="white"/>
<path d="M20.0032 13.663C20.0891 12.8973 20.2412 12.0213 20.4595 11.035C20.8329 9.4083 21.2129 8.1483 21.5995 7.25497C21.5003 6.88784 21.3346 6.58348 21.1025 6.34188C20.886 7.02948 20.6717 7.8355 20.4595 8.75995C20.0995 10.3866 19.9195 11.7133 19.9195 12.7399C19.9195 13.1198 19.9474 13.4275 20.0032 13.663Z" fill="white"/>
<path d="M27.0641 15.8094C27 15.9722 26.943 16.1208 26.8931 16.255C26.7198 16.7216 26.6331 17.075 26.6331 17.315C26.6331 17.5283 26.7865 17.795 27.0931 18.115C27.4131 18.4216 27.7865 18.695 28.2131 18.935C28.6531 19.1616 29.0465 19.275 29.3931 19.275C29.5931 19.275 29.7531 19.0683 29.8731 18.655C30.0065 18.2283 30.1465 17.6216 30.2931 16.835C30.3198 16.7016 30.3598 16.475 30.4131 16.155C30.4798 15.835 30.5398 15.5683 30.5931 15.355C31.7455 13.8749 32.6087 12.9816 33.1826 12.675C33.523 11.5727 33.6931 10.8543 33.6931 10.5199C33.6931 10.3599 33.6531 10.2799 33.5731 10.2799C33.0997 10.2799 32.2637 11.0155 31.0652 12.4866C31.0479 12.5093 31.0305 12.5321 31.0131 12.555C31.0137 12.5528 31.0143 12.5507 31.0148 12.5486C30.8788 12.7164 30.7383 12.8935 30.5931 13.0799C30.5398 13.2933 30.4798 13.5599 30.4131 13.8799C30.3598 14.1999 30.3198 14.4266 30.2931 14.5599C30.1465 15.3466 30.0065 15.9533 29.8731 16.3799C29.7531 16.7933 29.5931 16.9999 29.3931 16.9999C29.0465 16.9999 28.6531 16.8866 28.2131 16.6599C27.7865 16.4199 27.4131 16.1466 27.0931 15.8399C27.0833 15.8297 27.0737 15.8195 27.0641 15.8094Z" fill="white"/>
<path d="M31.3722 9.81124C31.2551 9.96284 31.1355 10.1191 31.0131 10.2799C31.0812 10.0226 31.1408 9.76309 31.1917 9.50144C31.2759 9.61727 31.336 9.72054 31.3722 9.81124Z" fill="white"/>
<path d="M36.7723 9.79393C36.6113 10.2845 36.4049 10.8865 36.1531 11.5999C35.7265 12.7733 35.4531 13.5666 35.3331 13.9799C35.7465 13.7666 36.0665 13.5866 36.2931 13.4399C36.2986 13.4363 36.3042 13.4326 36.3097 13.4288C36.5548 12.7268 36.7492 12.1488 36.8931 11.695C37.0665 11.1483 37.1598 10.7616 37.1731 10.535C37.1731 10.3616 37.0398 10.115 36.7731 9.79497L36.7723 9.79393Z" fill="white"/>
<path d="M38.3164 15.738C38.2834 15.7652 38.249 15.7925 38.2131 15.8199C37.7598 16.1533 37.2198 16.4333 36.5931 16.6599C35.9665 16.8866 35.4331 16.9999 34.9931 16.9999C34.6865 16.9999 34.3331 16.8799 33.9331 16.6399C33.5372 16.4024 33.1935 16.1321 32.902 15.8292C32.6161 16.7148 32.4731 17.2233 32.4731 17.355C32.4731 17.5283 32.6131 17.775 32.8931 18.095C33.1865 18.4016 33.5331 18.675 33.9331 18.915C34.3331 19.155 34.6865 19.275 34.9931 19.275C35.4331 19.275 35.9665 19.1616 36.5931 18.935C37.2198 18.7083 37.7598 18.4283 38.2131 18.095C38.6665 17.7483 38.8931 17.415 38.8931 17.095C38.8931 16.6416 38.7465 16.2416 38.4531 15.895C38.411 15.8408 38.3654 15.7885 38.3164 15.738Z" fill="white"/>
<path d="M46.1653 14.3052C46.2007 14.1511 46.2407 13.9943 46.2855 13.835C46.5121 13.075 46.8121 12.435 47.1855 11.915C47.5721 11.3816 47.9988 11.115 48.4655 11.115C48.8655 11.115 49.1721 11.235 49.3855 11.475C49.4059 11.498 49.4254 11.5219 49.4439 11.5468C49.6183 11.0878 49.7055 10.6455 49.7055 10.2199C49.7055 9.77995 49.5988 9.43995 49.3855 9.19995C49.1721 8.95995 48.8655 8.83995 48.4655 8.83995C47.9988 8.83995 47.5721 9.10661 47.1855 9.63995C46.8121 10.1599 46.5121 10.7999 46.2855 11.5599C46.0721 12.3199 45.9655 13.0199 45.9655 13.6599C45.9655 13.9133 46.0121 14.1066 46.1055 14.2399C46.1246 14.2638 46.1445 14.2856 46.1653 14.3052Z" fill="white"/>
<path d="M79.1361 10.1199C78.5894 10.5733 77.9094 10.9466 77.0961 11.2399C77.2694 10.6266 77.5294 10.0599 77.8761 9.53995C78.2361 9.01995 78.6694 8.57328 79.1761 8.19995C79.6961 8.33328 79.9561 8.58661 79.9561 8.95995C79.9561 9.27995 79.6828 9.66661 79.1361 10.1199Z" fill="white"/>
<path d="M94.2243 8.93555C94.1059 9.06695 93.9937 9.20676 93.8878 9.35497C93.6345 9.7283 93.5078 10.055 93.5078 10.335C93.5078 10.4816 93.5745 10.6216 93.7078 10.755C93.8411 10.8883 94.0478 11.0683 94.3278 11.295C94.461 11.4071 94.5739 11.5063 94.6665 11.5927C94.6806 11.5407 94.6944 11.4898 94.7078 11.4399C94.9345 10.5999 95.0478 10.0666 95.0478 9.83995C95.0478 9.73328 94.9878 9.62661 94.8678 9.51995C94.7611 9.39995 94.5811 9.23328 94.3278 9.01995C94.2921 8.99106 94.2576 8.96293 94.2243 8.93555Z" fill="white"/>
<path d="M92.692 20.9954C92.4759 21.8277 92.3678 22.3676 92.3678 22.615C92.3678 22.8416 92.5211 23.1083 92.8278 23.415C93.1211 23.735 93.4745 24.0083 93.8878 24.235C94.3145 24.4616 94.7011 24.575 95.0478 24.575C95.2611 24.575 95.4145 24.375 95.5078 23.975C95.6145 23.575 95.7211 22.9216 95.8278 22.015C95.8411 21.895 95.8878 21.4816 95.9678 20.775C96.0611 20.0816 96.1878 19.4016 96.3478 18.735C96.8011 19.095 97.2545 19.275 97.7078 19.275C98.7611 19.275 99.7745 18.915 100.748 18.195C101.734 17.4616 102.528 16.5416 103.128 15.435C103.741 14.315 104.048 13.2216 104.048 12.155C104.048 11.7765 104.005 11.4183 103.921 11.0804C103.777 11.763 103.513 12.4562 103.128 13.1599C102.528 14.2666 101.734 15.1866 100.748 15.9199C99.7745 16.6399 98.7611 16.9999 97.7078 16.9999C97.2545 16.9999 96.8011 16.8199 96.3478 16.4599C96.1878 17.1266 96.0611 17.8066 95.9678 18.4999C95.8878 19.2066 95.8411 19.6199 95.8278 19.7399C95.7211 20.6466 95.6145 21.2999 95.5078 21.6999C95.4145 22.0999 95.2611 22.2999 95.0478 22.2999C94.7011 22.2999 94.3145 22.1866 93.8878 21.9599C93.4745 21.7333 93.1211 21.4599 92.8278 21.1399C92.7786 21.0907 92.7334 21.0426 92.692 20.9954Z" fill="white"/>
<path d="M97.3677 14.3052C97.403 14.1511 97.4431 13.9943 97.4878 13.835C97.7145 13.075 98.0145 12.435 98.3878 11.915C98.7745 11.3816 99.2011 11.115 99.6678 11.115C100.068 11.115 100.374 11.235 100.588 11.475C100.608 11.498 100.628 11.5219 100.646 11.5468C100.821 11.0878 100.908 10.6455 100.908 10.2199C100.908 9.77995 100.801 9.43995 100.588 9.19995C100.374 8.95995 100.068 8.83995 99.6678 8.83995C99.2011 8.83995 98.7745 9.10661 98.3878 9.63995C98.0145 10.1599 97.7145 10.7999 97.4878 11.5599C97.2745 12.3199 97.1678 13.0199 97.1678 13.6599C97.1678 13.9133 97.2145 14.1066 97.3078 14.2399C97.3269 14.2638 97.3469 14.2856 97.3677 14.3052Z" fill="white"/>
<path d="M114.811 13.5026C115.064 12.7796 115.256 12.2104 115.388 11.795C115.588 11.2083 115.695 10.7883 115.708 10.535C115.708 10.3543 115.571 10.1111 115.296 9.80541C115.107 10.3822 114.831 11.1804 114.468 12.1999C114.215 12.8533 113.988 13.4733 113.788 14.0599C114.155 13.8796 114.496 13.6938 114.811 13.5026Z" fill="white"/>
<path d="M111.183 8.26222C111.304 8.33732 111.426 8.42823 111.548 8.53497C111.715 8.67993 111.858 8.82598 111.976 8.9731C111.806 9.5196 111.58 10.0439 111.297 10.546C111.226 10.5386 111.157 10.535 111.088 10.535C110.462 10.535 109.902 10.815 109.408 11.375C108.915 11.935 108.522 12.6683 108.228 13.575C108.193 13.6853 108.159 13.7967 108.126 13.9091C107.97 14.0162 107.811 14.1198 107.648 14.2199C107.742 13.1799 107.935 12.2066 108.228 11.2999C108.522 10.3933 108.915 9.65995 109.408 9.09995C109.902 8.53995 110.462 8.25995 111.088 8.25995C111.12 8.25995 111.151 8.26071 111.183 8.26222Z" fill="white"/>
<path d="M104.647 14.3786C104.555 14.9024 104.508 15.4212 104.508 15.935C104.508 16.3483 104.668 16.8216 104.988 17.355C105.322 17.8883 105.722 18.3416 106.188 18.715C106.668 19.0883 107.122 19.275 107.548 19.275C108.175 19.275 108.808 18.9216 109.448 18.215C110.069 17.5435 110.714 16.6674 111.383 15.5866C111.253 15.4068 111.188 15.2579 111.188 15.1399C111.188 15.0066 111.242 14.8266 111.348 14.5999C111.468 14.3733 111.595 14.1399 111.728 13.8999C111.862 13.6599 111.948 13.4999 111.988 13.4199L111.488 13.1399C110.782 14.2999 110.102 15.2333 109.448 15.9399C108.808 16.6466 108.175 16.9999 107.548 16.9999C107.122 16.9999 106.668 16.8133 106.188 16.4399C105.722 16.0666 105.322 15.6133 104.988 15.0799C104.84 14.8333 104.727 14.5995 104.647 14.3786Z" fill="white"/>
<path d="M111.799 16.0475C112.046 16.2766 112.323 16.4808 112.628 16.6599C113.028 16.8866 113.382 16.9999 113.688 16.9999C114.128 16.9999 114.662 16.8866 115.288 16.6599C115.915 16.4333 116.455 16.1533 116.908 15.8199C116.944 15.7925 116.979 15.7652 117.012 15.738C117.061 15.7885 117.106 15.8408 117.148 15.895C117.442 16.2416 117.588 16.6416 117.588 17.095C117.588 17.415 117.362 17.7483 116.908 18.095C116.455 18.4283 115.915 18.7083 115.288 18.935C114.662 19.1616 114.128 19.275 113.688 19.275C113.382 19.275 113.028 19.1616 112.628 18.935C112.242 18.7083 111.902 18.4416 111.608 18.135C111.328 17.8283 111.188 17.5883 111.188 17.415C111.188 17.2816 111.242 17.1016 111.348 16.875C111.468 16.6483 111.595 16.415 111.728 16.175C111.754 16.1296 111.777 16.0871 111.799 16.0475Z" fill="white"/>
<path d="M120.212 16.6599C120.639 16.8866 121.032 16.9999 121.392 16.9999C121.766 16.9999 122.046 16.5133 122.232 15.5399C122.432 14.5533 122.552 13.3199 122.592 11.8399C122.614 11.8261 122.637 11.8123 122.659 11.7985C122.644 11.863 122.628 11.9284 122.612 11.995L122.852 12.115C122.981 11.9074 123.115 11.6834 123.254 11.4428C123.71 11.1812 124.162 10.9469 124.612 10.7399C125.292 10.4199 126.112 10.0999 127.072 9.77995C127.184 9.6098 127.28 9.43965 127.36 9.2695C127.555 9.55973 127.652 9.90155 127.652 10.295C127.652 10.8816 127.459 11.4683 127.072 12.055C126.112 12.375 125.292 12.695 124.612 13.015C123.946 13.3216 123.272 13.6883 122.592 14.115C122.552 15.595 122.432 16.8283 122.232 17.815C122.046 18.7883 121.766 19.275 121.392 19.275C121.032 19.275 120.639 19.1616 120.212 18.935C119.786 18.695 119.419 18.4216 119.112 18.115C118.806 17.795 118.652 17.5283 118.652 17.315C118.652 17.0616 118.706 16.735 118.812 16.335C118.86 16.149 118.919 15.9388 118.989 15.7042C119.027 15.7483 119.068 15.7936 119.112 15.8399C119.419 16.1466 119.786 16.4199 120.212 16.6599Z" fill="white"/>
<path d="M119.557 11.5952C119.644 11.304 119.716 11.0523 119.772 10.8399C119.879 10.4266 119.932 10.0933 119.932 9.83995C119.932 9.73328 119.872 9.61995 119.752 9.49995C119.632 9.37995 119.446 9.21995 119.192 9.01995C119.157 8.9914 119.124 8.96361 119.091 8.93658C118.971 9.06768 118.858 9.20714 118.752 9.35497C118.486 9.7283 118.352 10.055 118.352 10.335C118.352 10.4683 118.419 10.6016 118.552 10.735C118.686 10.8683 118.899 11.055 119.192 11.295C119.335 11.4078 119.457 11.5079 119.557 11.5952Z" fill="white"/>
<path d="M122.872 9.80802C122.834 9.70763 122.767 9.59194 122.673 9.46096C122.654 9.54547 122.634 9.6318 122.612 9.71995L122.852 9.83995C122.859 9.82935 122.866 9.81871 122.872 9.80802Z" fill="white"/>
</svg>
