<svg width="140" height="184" viewBox="0 0 140 184" fill="none" xmlns="http://www.w3.org/2000/svg">
<path d="M52.92 162.36V163H50.36V161.88H50.2C49.9653 162.285 49.624 162.6 49.176 162.824C48.728 163.048 48.216 163.16 47.64 163.16C46.8933 163.16 46.2267 162.979 45.64 162.616C45.064 162.253 44.6107 161.752 44.28 161.112C43.96 160.461 43.8 159.731 43.8 158.92C43.8 158.109 43.9653 157.384 44.296 156.744C44.6267 156.093 45.08 155.587 45.656 155.224C46.2427 154.861 46.904 154.68 47.64 154.68C48.12 154.68 48.5733 154.76 49 154.92C49.4267 155.08 49.7733 155.304 50.04 155.592H50.2V151.96H47.8V151.32C48.5893 151.32 49.3253 151.267 50.008 151.16C50.7013 151.043 51.2453 150.883 51.64 150.68V162.04L51.96 162.36H52.92ZM50.2 158.04C50.2 157.251 49.992 156.627 49.576 156.168C49.1707 155.709 48.632 155.48 47.96 155.48C47.4373 155.48 46.984 155.619 46.6 155.896C46.216 156.163 45.9173 156.557 45.704 157.08C45.5013 157.592 45.4 158.205 45.4 158.92C45.4 160.029 45.6133 160.883 46.04 161.48C46.4773 162.067 47.096 162.36 47.896 162.36C48.6 162.36 49.16 162.12 49.576 161.64C49.992 161.149 50.2 160.483 50.2 159.64V158.04ZM59.362 163.16C58.6153 163.16 57.9593 162.989 57.394 162.648C56.8393 162.307 56.4073 161.827 56.098 161.208C55.7993 160.589 55.65 159.869 55.65 159.048C55.65 158.152 55.81 157.379 56.13 156.728C56.45 156.067 56.9033 155.56 57.49 155.208C58.0767 154.856 58.7593 154.68 59.538 154.68C60.242 154.68 60.8553 154.824 61.378 155.112C61.9007 155.389 62.3007 155.795 62.578 156.328C62.866 156.861 63.01 157.485 63.01 158.2L62.53 158.68H57.25C57.2393 158.744 57.234 158.803 57.234 158.856C57.234 158.909 57.234 158.957 57.234 159C57.234 159.651 57.3407 160.232 57.554 160.744C57.7673 161.245 58.066 161.64 58.45 161.928C58.834 162.216 59.2713 162.36 59.762 162.36C60.2313 162.36 60.658 162.232 61.042 161.976C61.4367 161.709 61.7673 161.352 62.034 160.904C62.3007 160.445 62.4927 159.933 62.61 159.368L63.17 159.48C62.9673 160.621 62.5407 161.523 61.89 162.184C61.25 162.835 60.4073 163.16 59.362 163.16ZM61.09 158.04L61.41 157.72C61.41 156.963 61.2447 156.376 60.914 155.96C60.594 155.544 60.1513 155.336 59.586 155.336C59.202 155.336 58.85 155.443 58.53 155.656C58.2207 155.859 57.9593 156.163 57.746 156.568C57.5327 156.973 57.3887 157.464 57.314 158.04H61.09ZM58.61 153.72L60.93 151H62.21V152.28L58.85 154.04L58.61 153.72ZM69.975 163.16C68.823 163.16 67.9323 162.797 67.303 162.072C66.6843 161.347 66.375 160.349 66.375 159.08C66.375 157.651 66.695 156.563 67.335 155.816C67.975 155.059 68.8977 154.68 70.103 154.68C70.3377 154.68 70.551 154.696 70.743 154.728C70.9457 154.76 71.159 154.803 71.383 154.856C71.5537 154.888 71.7297 154.92 71.911 154.952C72.103 154.984 72.2843 155 72.455 155H72.935L73.255 158.312L72.727 158.392C72.5777 157.635 72.423 157.048 72.263 156.632C72.1137 156.216 71.895 155.896 71.607 155.672C71.319 155.437 70.919 155.32 70.407 155.32C69.6177 155.32 69.015 155.624 68.599 156.232C68.183 156.829 67.975 157.715 67.975 158.888C67.975 159.965 68.183 160.813 68.599 161.432C69.0257 162.051 69.6283 162.36 70.407 162.36C71.1323 162.36 71.7243 162.099 72.183 161.576C72.6417 161.043 72.9297 160.307 73.047 159.368L73.575 159.48C73.4577 160.643 73.0843 161.549 72.455 162.2C71.8363 162.84 71.0097 163.16 69.975 163.16ZM80.9319 163.16C80.1105 163.16 79.3852 162.989 78.7559 162.648C78.1265 162.296 77.6359 161.8 77.2839 161.16C76.9425 160.52 76.7719 159.773 76.7719 158.92C76.7719 158.067 76.9425 157.32 77.2839 156.68C77.6359 156.04 78.1265 155.549 78.7559 155.208C79.3852 154.856 80.1105 154.68 80.9319 154.68C81.7532 154.68 82.4785 154.856 83.1079 155.208C83.7372 155.549 84.2225 156.04 84.5639 156.68C84.9159 157.32 85.0919 158.067 85.0919 158.92C85.0919 159.773 84.9159 160.52 84.5639 161.16C84.2225 161.8 83.7372 162.296 83.1079 162.648C82.4785 162.989 81.7532 163.16 80.9319 163.16ZM80.9319 162.44C81.7532 162.44 82.3825 162.141 82.8199 161.544C83.2679 160.936 83.4919 160.061 83.4919 158.92C83.4919 157.779 83.2679 156.909 82.8199 156.312C82.3825 155.704 81.7532 155.4 80.9319 155.4C80.1105 155.4 79.4759 155.704 79.0279 156.312C78.5905 156.909 78.3719 157.779 78.3719 158.92C78.3719 160.061 78.5905 160.936 79.0279 161.544C79.4759 162.141 80.1105 162.44 80.9319 162.44ZM97.4138 162.36V163H94.8538V161.72H94.6938C94.3844 162.189 93.9844 162.547 93.4938 162.792C93.0031 163.037 92.4431 163.16 91.8138 163.16C90.9284 163.16 90.2511 162.915 89.7818 162.424C89.3231 161.933 89.0938 161.219 89.0938 160.28V155.96L88.7738 155.64H87.8138V155H96.1338V162.04L96.4538 162.36H97.4138ZM94.6938 155.96L94.3738 155.64H90.5338V159.96C90.5338 160.685 90.6831 161.24 90.9818 161.624C91.2911 162.008 91.7284 162.2 92.2938 162.2C93.0724 162.2 93.6644 161.965 94.0698 161.496C94.4858 161.027 94.6938 160.355 94.6938 159.48V155.96ZM100.042 155.64H99.0819V155H107.722V155.64H106.922L104.202 163H102.922L100.042 155.64ZM103.994 161.56L105.994 155.96L105.674 155.64H102.122L101.802 155.96L103.834 161.56H103.994Z" fill="black"/>
<path d="M109.22 162.424L110.131 162.728L110.536 162.525L112.461 156.758L111.247 156.353L111.45 155.746C111.501 155.763 111.551 155.78 111.602 155.797C111.662 155.817 111.725 155.832 111.789 155.842C112.13 155.934 112.499 155.989 112.897 156.01C113.298 156.02 113.693 156 114.081 155.95L113.422 157.923L113.574 157.973C113.962 157.484 114.414 157.141 114.93 156.942C115.46 156.736 115.978 156.701 116.484 156.836L117.723 157.166L116.913 158.582L115.699 158.177C115.082 157.971 114.523 158.026 114.024 158.343C113.535 158.663 113.165 159.197 112.915 159.946L111.902 162.981L112.104 163.386L114.532 164.197L114.33 164.804L109.018 163.031L109.22 162.424Z" fill="black"/>
<path d="M114.995 166.417L115.788 166.959L116.233 166.875L119.662 161.855L118.605 161.133L118.966 160.604C119.019 160.64 119.072 160.676 119.125 160.712C119.178 160.749 119.234 160.78 119.292 160.808C119.63 161.013 119.997 161.185 120.392 161.326C120.801 161.464 121.195 161.558 121.573 161.61L117.422 167.687L117.505 168.132L118.298 168.673L117.937 169.202L114.634 166.946L114.995 166.417ZM122.196 157.579L123.781 158.662L122.698 160.247L121.113 159.164L122.196 157.579Z" fill="black"/>
<path d="M120.195 171.635L120.907 172.279L121.359 172.257L125.439 167.749L124.49 166.89L124.92 166.416C124.959 166.452 124.999 166.487 125.038 166.523C125.086 166.566 125.137 166.605 125.191 166.64C125.467 166.861 125.782 167.06 126.139 167.239C126.502 167.409 126.872 167.55 127.247 167.659L125.851 169.201L125.97 169.309C126.522 169.017 127.074 168.884 127.627 168.909C128.194 168.934 128.682 169.11 129.091 169.437L130.094 170.236L128.783 171.208L127.834 170.349C127.352 169.912 126.818 169.739 126.234 169.828C125.657 169.925 125.104 170.266 124.574 170.851L122.427 173.223L122.449 173.675L124.347 175.393L123.918 175.868L119.766 172.11L120.195 171.635Z" fill="black"/>
<path d="M4.304 13.16C4.112 13.16 3.90933 13.144 3.696 13.112C3.48267 13.0907 3.27467 13.0587 3.072 13.016C2.80533 12.9733 2.51733 12.936 2.208 12.904C1.90933 12.8613 1.6 12.84 1.28 12.84H1.12L0.8 9.528L1.312 9.48C1.45067 10.4293 1.76 11.176 2.24 11.72C2.72 12.2533 3.37067 12.52 4.192 12.52C4.62933 12.52 4.98667 12.424 5.264 12.232C5.552 12.0293 5.696 11.752 5.696 11.4C5.696 11.112 5.59467 10.8613 5.392 10.648C5.18933 10.424 4.88 10.2107 4.464 10.008L2.832 9.224C2.224 8.936 1.78667 8.616 1.52 8.264C1.25333 7.90133 1.12 7.464 1.12 6.952C1.12 6.29067 1.344 5.74667 1.792 5.32C2.25067 4.89333 2.82667 4.68 3.52 4.68C3.73333 4.68 3.94667 4.696 4.16 4.728C4.37333 4.76 4.58133 4.79733 4.784 4.84C4.976 4.88267 5.184 4.92 5.408 4.952C5.632 4.984 5.856 5 6.08 5H6.24L6.56 7.832L6.064 7.88C5.91467 7.10133 5.648 6.48267 5.264 6.024C4.88 5.55467 4.39467 5.32 3.808 5.32C3.34933 5.32 2.98133 5.432 2.704 5.656C2.43733 5.86933 2.304 6.17867 2.304 6.584C2.304 6.88267 2.42133 7.14933 2.656 7.384C2.89067 7.61867 3.248 7.848 3.728 8.072L5.088 8.712C5.77067 9.032 6.26667 9.37333 6.576 9.736C6.88533 10.0987 7.04 10.5253 7.04 11.016C7.04 11.4213 6.92267 11.7893 6.688 12.12C6.45333 12.44 6.128 12.696 5.712 12.888C5.296 13.0693 4.82667 13.16 4.304 13.16ZM4.4 27.16C3.248 27.16 2.35733 26.7973 1.728 26.072C1.10933 25.3467 0.8 24.3493 0.8 23.08C0.8 21.6507 1.12 20.5627 1.76 19.816C2.4 19.0587 3.32267 18.68 4.528 18.68C4.76267 18.68 4.976 18.696 5.168 18.728C5.37067 18.76 5.584 18.8027 5.808 18.856C5.97867 18.888 6.15467 18.92 6.336 18.952C6.528 18.984 6.70933 19 6.88 19H7.36L7.68 22.312L7.152 22.392C7.00267 21.6347 6.848 21.048 6.688 20.632C6.53867 20.216 6.32 19.896 6.032 19.672C5.744 19.4373 5.344 19.32 4.832 19.32C4.04267 19.32 3.44 19.624 3.024 20.232C2.608 20.8293 2.4 21.7147 2.4 22.888C2.4 23.9653 2.608 24.8133 3.024 25.432C3.45067 26.0507 4.05333 26.36 4.832 26.36C5.55733 26.36 6.14933 26.0987 6.608 25.576C7.06667 25.0427 7.35467 24.3067 7.472 23.368L8 23.48C7.88267 24.6427 7.50933 25.5493 6.88 26.2C6.26133 26.84 5.43467 27.16 4.4 27.16ZM0.56 40.36H1.52L1.84 40.04V33.96H0.56V33.32C0.613333 33.32 0.666667 33.32 0.72 33.32C0.784 33.32 0.848 33.3147 0.912 33.304C1.264 33.2827 1.632 33.2187 2.016 33.112C2.4 32.9947 2.768 32.8507 3.12 32.68V34.76H3.28C3.49333 34.1733 3.81333 33.704 4.24 33.352C4.67733 32.9893 5.15733 32.792 5.68 32.76L6.96 32.68L6.64 34.28H5.36C4.70933 34.28 4.19733 34.5093 3.824 34.968C3.46133 35.4267 3.28 36.0507 3.28 36.84V40.04L3.6 40.36H6.16V41H0.56V40.36ZM4.96 55.16C4.13867 55.16 3.41333 54.9893 2.784 54.648C2.15467 54.296 1.664 53.8 1.312 53.16C0.970667 52.52 0.8 51.7733 0.8 50.92C0.8 50.0667 0.970667 49.32 1.312 48.68C1.664 48.04 2.15467 47.5493 2.784 47.208C3.41333 46.856 4.13867 46.68 4.96 46.68C5.78133 46.68 6.50667 46.856 7.136 47.208C7.76533 47.5493 8.25067 48.04 8.592 48.68C8.944 49.32 9.12 50.0667 9.12 50.92C9.12 51.7733 8.944 52.52 8.592 53.16C8.25067 53.8 7.76533 54.296 7.136 54.648C6.50667 54.9893 5.78133 55.16 4.96 55.16ZM4.96 54.44C5.78133 54.44 6.41067 54.1413 6.848 53.544C7.296 52.936 7.52 52.0613 7.52 50.92C7.52 49.7787 7.296 48.9093 6.848 48.312C6.41067 47.704 5.78133 47.4 4.96 47.4C4.13867 47.4 3.504 47.704 3.056 48.312C2.61867 48.9093 2.4 49.7787 2.4 50.92C2.4 52.0613 2.61867 52.936 3.056 53.544C3.504 54.1413 4.13867 54.44 4.96 54.44ZM0.56 68.36H1.52L1.84 68.04V57.96H0.56V57.32C1.008 57.32 1.472 57.2667 1.952 57.16C2.44267 57.0427 2.88533 56.8827 3.28 56.68V68.04L3.6 68.36H4.56V69H0.56V68.36ZM4.565 68.36H5.525L5.845 68.04V57.96H4.565V57.32C5.013 57.32 5.477 57.2667 5.957 57.16C6.44767 57.0427 6.89033 56.8827 7.285 56.68V68.04L7.605 68.36H8.565V69H4.565V68.36ZM4.512 83.16C3.76533 83.16 3.10933 82.9893 2.544 82.648C1.98933 82.3067 1.55733 81.8267 1.248 81.208C0.949333 80.5893 0.8 79.8693 0.8 79.048C0.8 78.152 0.96 77.3787 1.28 76.728C1.6 76.0667 2.05333 75.56 2.64 75.208C3.22667 74.856 3.90933 74.68 4.688 74.68C5.392 74.68 6.00533 74.824 6.528 75.112C7.05067 75.3893 7.45067 75.7947 7.728 76.328C8.016 76.8613 8.16 77.4853 8.16 78.2L7.68 78.68H2.4C2.38933 78.744 2.384 78.8027 2.384 78.856C2.384 78.9093 2.384 78.9573 2.384 79C2.384 79.6507 2.49067 80.232 2.704 80.744C2.91733 81.2453 3.216 81.64 3.6 81.928C3.984 82.216 4.42133 82.36 4.912 82.36C5.38133 82.36 5.808 82.232 6.192 81.976C6.58667 81.7093 6.91733 81.352 7.184 80.904C7.45067 80.4453 7.64267 79.9333 7.76 79.368L8.32 79.48C8.11733 80.6213 7.69067 81.5227 7.04 82.184C6.4 82.8347 5.55733 83.16 4.512 83.16ZM6.24 78.04L6.56 77.72C6.56 76.9627 6.39467 76.376 6.064 75.96C5.744 75.544 5.30133 75.336 4.736 75.336C4.352 75.336 4 75.4427 3.68 75.656C3.37067 75.8587 3.10933 76.1627 2.896 76.568C2.68267 76.9733 2.53867 77.464 2.464 78.04H6.24ZM0.56 96.36H1.52L1.84 96.04V89.96H0.56V89.32C0.613333 89.32 0.666667 89.32 0.72 89.32C0.784 89.32 0.848 89.3147 0.912 89.304C1.264 89.2827 1.632 89.2187 2.016 89.112C2.4 88.9947 2.768 88.8507 3.12 88.68V90.76H3.28C3.49333 90.1733 3.81333 89.704 4.24 89.352C4.67733 88.9893 5.15733 88.792 5.68 88.76L6.96 88.68L6.64 90.28H5.36C4.70933 90.28 4.19733 90.5093 3.824 90.968C3.46133 91.4267 3.28 92.0507 3.28 92.84V96.04L3.6 96.36H6.16V97H0.56V96.36Z" fill="black"/>
<path d="M1.32 123.36H2.28L2.6 123.04V112.96H1.32V112.32C1.37333 112.32 1.42667 112.32 1.48 112.32C1.544 112.32 1.60267 112.315 1.656 112.304C2.01867 112.283 2.392 112.219 2.776 112.112C3.17067 111.995 3.53867 111.851 3.88 111.68V112.96H4.04C4.264 112.565 4.616 112.256 5.096 112.032C5.58667 111.797 6.12 111.68 6.696 111.68C7.42133 111.68 8.06667 111.856 8.632 112.208C9.208 112.56 9.65067 113.056 9.96 113.696C10.28 114.325 10.44 115.051 10.44 115.872C10.44 116.683 10.264 117.413 9.912 118.064C9.57067 118.715 9.10133 119.227 8.504 119.6C7.90667 119.973 7.24 120.16 6.504 120.16C6.06667 120.16 5.65067 120.091 5.256 119.952C4.86133 119.813 4.51467 119.616 4.216 119.36H4.04V123.04L4.36 123.36H6.92V124H1.32V123.36ZM6.312 119.36C6.83467 119.36 7.28267 119.227 7.656 118.96C8.04 118.683 8.33333 118.288 8.536 117.776C8.73867 117.253 8.84 116.635 8.84 115.92C8.84 115.205 8.73867 114.592 8.536 114.08C8.33333 113.557 8.04533 113.163 7.672 112.896C7.30933 112.619 6.87733 112.48 6.376 112.48C5.69333 112.48 5.13333 112.725 4.696 113.216C4.25867 113.707 4.04 114.315 4.04 115.04V116.64C4.04 117.483 4.24267 118.149 4.648 118.64C5.064 119.12 5.61867 119.36 6.312 119.36Z" fill="black"/>
<path d="M16.96 129.16C16.1387 129.16 15.4133 128.989 14.784 128.648C14.1547 128.296 13.664 127.8 13.312 127.16C12.9707 126.52 12.8 125.773 12.8 124.92C12.8 124.067 12.9707 123.32 13.312 122.68C13.664 122.04 14.1547 121.549 14.784 121.208C15.4133 120.856 16.1387 120.68 16.96 120.68C17.7813 120.68 18.5067 120.856 19.136 121.208C19.7653 121.549 20.2507 122.04 20.592 122.68C20.944 123.32 21.12 124.067 21.12 124.92C21.12 125.773 20.944 126.52 20.592 127.16C20.2507 127.8 19.7653 128.296 19.136 128.648C18.5067 128.989 17.7813 129.16 16.96 129.16ZM16.96 128.44C17.7813 128.44 18.4107 128.141 18.848 127.544C19.296 126.936 19.52 126.061 19.52 124.92C19.52 123.779 19.296 122.909 18.848 122.312C18.4107 121.704 17.7813 121.4 16.96 121.4C16.1387 121.4 15.504 121.704 15.056 122.312C14.6187 122.909 14.4 123.779 14.4 124.92C14.4 126.061 14.6187 126.936 15.056 127.544C15.504 128.141 16.1387 128.44 16.96 128.44Z" fill="black"/>
<path d="M30.92 139.36V140H28.36V138.72H28.2C27.8907 139.189 27.4907 139.547 27 139.792C26.5093 140.037 25.9493 140.16 25.32 140.16C24.4347 140.16 23.7573 139.915 23.288 139.424C22.8293 138.933 22.6 138.219 22.6 137.28V132.96L22.28 132.64H21.32V132H29.64V139.04L29.96 139.36H30.92ZM28.2 132.96L27.88 132.64H24.04V136.96C24.04 137.685 24.1893 138.24 24.488 138.624C24.7973 139.008 25.2347 139.2 25.8 139.2C26.5787 139.2 27.1707 138.965 27.576 138.496C27.992 138.027 28.2 137.355 28.2 136.48V132.96Z" fill="black"/>
<path d="M33.56 150.36H34.52L34.84 150.04V143.96H33.56V143.32C33.6133 143.32 33.6667 143.32 33.72 143.32C33.784 143.32 33.848 143.315 33.912 143.304C34.264 143.283 34.632 143.219 35.016 143.112C35.4 142.995 35.768 142.851 36.12 142.68V144.76H36.28C36.4933 144.173 36.8133 143.704 37.24 143.352C37.6773 142.989 38.1573 142.792 38.68 142.76L39.96 142.68L39.64 144.28H38.36C37.7093 144.28 37.1973 144.509 36.824 144.968C36.4613 145.427 36.28 146.051 36.28 146.84V150.04L36.6 150.36H39.16V151H33.56V150.36Z" fill="black"/>
</svg>
