<?xml version="1.0" standalone="no"?>
<!DOCTYPE svg PUBLIC "-//W3C//DTD SVG 20010904//EN"
 "http://www.w3.org/TR/2001/REC-SVG-20010904/DTD/svg10.dtd">
<svg version="1.0" xmlns="http://www.w3.org/2000/svg"
 width="260.000000pt" height="260.000000pt" viewBox="0 0 260.000000 260.000000"
 preserveAspectRatio="xMidYMid meet">
<metadata>
Created by potrace 1.14, written by Peter Selinger 2001-2017
</metadata>
<g transform="translate(0.000000,260.000000) scale(0.100000,-0.100000)"
fill="#000000" stroke="none">
<path d="M1145 2589 c-93 -12 -227 -46 -240 -62 -6 -6 -26 -61 -45 -120 -22
-69 -38 -106 -46 -103 -16 6 -85 -77 -118 -141 -23 -47 -26 -64 -27 -160 -1
-192 -12 -277 -42 -322 -19 -29 -34 -41 -51 -41 -14 0 -32 -3 -41 -7 -25 -9
-103 -133 -160 -255 -30 -63 -59 -112 -71 -119 -34 -18 -47 -57 -52 -158 -4
-76 -2 -93 9 -89 20 6 48 67 49 105 0 43 39 161 64 195 10 15 48 44 83 65 88
51 119 84 208 218 74 112 82 119 132 115 12 0 41 8 64 19 24 12 47 21 52 21 6
0 45 21 88 46 72 42 82 52 137 137 32 51 67 106 78 124 10 18 48 81 83 140 71
118 98 197 108 314 l6 76 -33 6 c-42 9 -147 7 -235 -4z"/>
<path d="M678 2437 c-42 -23 -47 -44 -22 -83 16 -23 18 -24 35 -8 26 23 51
115 32 113 -5 0 -25 -10 -45 -22z"/>
<path d="M1872 2423 c-19 -65 -21 -193 -3 -193 19 0 34 111 24 174 l-9 61 -12
-42z"/>
<path d="M1656 2405 c8 -37 14 -45 14 -19 0 10 -5 26 -10 34 -8 11 -9 7 -4
-15z"/>
<path d="M1963 2330 c-2 -48 1 -80 7 -80 6 0 10 34 10 80 0 104 -14 104 -17 0z"/>
<path d="M2010 2373 c0 -4 5 -15 10 -23 8 -13 10 -13 10 2 0 9 -4 20 -10 23
-5 3 -10 3 -10 -2z"/>
<path d="M1661 2344 c0 -11 3 -14 6 -6 3 7 2 16 -1 19 -3 4 -6 -2 -5 -13z"/>
<path d="M1991 2301 c-1 -36 2 -52 9 -45 6 6 6 26 1 54 l-9 45 -1 -54z"/>
<path d="M2041 2294 l-13 -55 42 -40 c39 -38 49 -69 19 -60 -8 2 -23 5 -33 6
-11 1 -24 11 -29 23 -24 53 -34 7 -12 -50 4 -10 3 -18 -3 -18 -6 0 -17 28 -24
63 -6 34 -14 54 -16 44 -3 -17 8 -71 40 -192 10 -36 11 -38 19 -17 5 12 13 22
20 22 6 0 9 7 5 15 -3 8 -1 15 5 15 6 0 7 4 4 10 -3 6 1 7 9 4 24 -9 19 -29
-14 -67 -16 -19 -30 -40 -30 -46 0 -16 20 -13 26 4 4 8 10 15 15 15 6 0 5 -9
-1 -20 -6 -11 -8 -20 -4 -20 3 0 1 -7 -6 -15 -7 -8 -9 -15 -6 -15 4 0 2 -9 -4
-21 -8 -13 -17 -18 -28 -14 -12 5 -12 1 4 -16 19 -22 19 -22 -2 -15 -18 5 -22
2 -26 -19 -4 -17 -1 -25 9 -25 8 0 11 -5 8 -11 -5 -7 -15 -5 -31 6 -23 15 -24
14 -30 -12 -10 -41 -14 -45 -30 -32 -13 10 -18 6 -15 -13 0 -5 -6 -8 -14 -8
-9 0 -18 -12 -21 -30 -5 -20 -12 -30 -25 -30 -24 0 -39 -30 -39 -80 0 -24 -4
-39 -10 -35 -5 3 -8 -7 -5 -24 4 -31 -16 -58 -34 -47 -11 7 -25 -29 -17 -43 3
-5 -2 -15 -11 -22 -14 -12 -15 -12 -9 -1 7 11 4 12 -13 3 -11 -7 -21 -8 -21
-4 -1 4 -9 -2 -19 -15 -12 -13 -25 -20 -35 -16 -9 3 -23 0 -32 -7 -12 -10 -15
-10 -12 2 2 8 7 17 12 21 5 3 -2 5 -17 5 -14 -1 -23 -5 -20 -9 9 -16 -9 -29
-23 -17 -21 18 -64 21 -64 5 0 -8 -7 -19 -16 -26 -8 -8 -14 -9 -13 -4 3 10
-29 74 -37 74 -3 0 -5 -15 -3 -32 4 -60 1 -70 -19 -59 -11 6 -24 6 -33 0 -7
-5 -27 -9 -44 -9 -21 0 -26 -3 -16 -9 9 -6 10 -11 2 -15 -6 -4 -13 -1 -15 6
-13 39 -14 40 -15 11 -1 -18 4 -33 9 -33 7 0 7 -6 1 -18 -6 -11 -12 -32 -15
-47 -3 -16 -10 -31 -15 -34 -5 -4 -11 -13 -13 -21 -2 -8 -11 -23 -20 -34 -10
-10 -15 -23 -12 -28 3 -4 -2 -22 -10 -40 -9 -17 -13 -40 -10 -51 3 -11 2 -17
-3 -14 -4 3 -8 -36 -8 -86 0 -51 -4 -100 -10 -110 -7 -13 -6 -20 3 -26 10 -6
10 -10 -3 -21 -9 -7 -14 -19 -11 -27 3 -7 2 -13 -2 -13 -4 0 -9 -12 -10 -26
-3 -35 -10 -44 -27 -37 -8 3 -15 -1 -15 -8 0 -7 -3 -9 -7 -6 -3 4 -16 -1 -27
-10 -20 -17 -20 -17 -7 0 12 15 12 19 -4 31 -14 10 -22 10 -31 2 -9 -8 -8 -13
5 -19 11 -5 7 -6 -11 -4 -18 3 -25 0 -21 -9 2 -6 -4 -18 -15 -25 -32 -24 -51
-62 -65 -134 -17 -84 -22 -174 -9 -160 5 6 21 44 37 86 35 99 61 143 81 135 8
-3 25 3 36 14 66 61 92 -24 103 -330 3 -91 8 -173 11 -182 4 -12 15 -18 36
-18 l31 0 -7 118 c-4 64 -11 149 -16 187 -5 39 -12 104 -15 145 -6 68 -5 73 9
56 8 -10 17 -24 19 -30 2 -6 6 -9 9 -6 5 4 1 43 -16 200 -4 31 -3 40 4 30 6
-10 10 35 10 135 0 149 0 151 37 254 33 91 42 107 75 127 20 13 56 27 80 30
24 4 48 14 54 22 13 18 131 27 181 13 26 -8 39 -7 44 1 4 6 12 7 18 4 6 -4 11
-3 11 3 0 5 14 18 30 28 17 10 40 32 50 50 11 18 26 33 35 33 10 0 13 5 9 11
-4 7 -1 10 7 7 8 -2 24 -24 36 -49 19 -39 22 -41 24 -19 1 14 3 30 4 35 2 6 3
20 4 31 0 12 9 30 19 41 9 10 13 13 8 6 -7 -10 -4 -12 9 -6 15 5 17 3 12 -13
-7 -18 -6 -18 8 1 9 11 13 25 11 31 -7 17 28 46 47 39 11 -5 23 10 45 57 16
35 33 77 36 95 8 35 29 58 45 49 6 -4 15 3 21 14 6 11 19 20 30 20 24 0 36 42
55 195 8 63 17 125 20 138 6 21 -5 36 -67 99 -78 79 -128 122 -128 111 0 -3 7
-15 17 -25 14 -16 14 -18 0 -18 -9 0 -20 15 -27 35 -6 19 -20 39 -29 45 -16 8
-20 2 -30 -46z m10 -221 c-12 -20 -14 -14 -5 12 4 9 9 14 11 11 3 -2 0 -13 -6
-23z m-20 -28 c11 8 12 -6 0 -23 -6 -10 -10 -8 -14 10 -4 12 -6 30 -6 38 1 8
4 5 6 -8 2 -12 9 -20 14 -17z m-42 -422 c-8 -10 -22 -35 -32 -55 -9 -21 -21
-38 -27 -38 -5 0 -10 -10 -10 -22 0 -13 -5 -30 -10 -38 -9 -13 -13 -12 -29 8
-11 12 -22 28 -24 35 -4 9 -8 8 -17 -3 -10 -12 -11 -10 -6 10 3 14 6 32 6 40
1 11 6 9 19 -7 23 -28 51 -30 51 -4 0 10 8 29 18 42 10 13 23 37 30 53 12 27
14 28 29 13 15 -14 15 -18 2 -34z m-39 -117 c0 -3 -4 -8 -10 -11 -5 -3 -10 -1
-10 4 0 6 5 11 10 11 6 0 10 -2 10 -4z m-237 -120 c3 -6 -6 -11 -18 -11 -12 0
-21 5 -18 11 2 6 10 11 18 11 8 0 16 -5 18 -11z"/>
<path d="M1652 2285 c0 -16 2 -22 5 -12 2 9 2 23 0 30 -3 6 -5 -1 -5 -18z"/>
<path d="M1682 2220 c0 -14 2 -19 5 -12 2 6 2 18 0 25 -3 6 -5 1 -5 -13z"/>
<path d="M1632 2214 c-9 -10 -10 -19 -3 -31 8 -15 10 -14 16 10 9 33 5 40 -13
21z"/>
<path d="M1836 2215 c4 -8 8 -15 10 -15 2 0 4 7 4 15 0 8 -4 15 -10 15 -5 0
-7 -7 -4 -15z"/>
<path d="M371 2153 c1 -86 10 -108 41 -106 23 1 26 -3 32 -44 6 -48 20 -73 40
-73 6 0 28 23 49 51 27 38 37 61 37 89 0 37 -22 61 -35 40 -11 -17 -42 -11
-57 12 -14 21 -14 21 -28 -11 l-13 -32 -23 38 c-13 21 -24 48 -24 60 0 12 -4
25 -10 28 -6 4 -10 -16 -9 -52z"/>
<path d="M1677 2158 c-2 -7 -1 -22 4 -33 6 -16 8 -14 8 13 1 33 -4 41 -12 20z"/>
<path d="M1792 2140 c0 -14 2 -19 5 -12 2 6 2 18 0 25 -3 6 -5 1 -5 -13z"/>
<path d="M1821 2109 c-7 -22 -10 -43 -7 -46 2 -3 10 14 16 37 15 55 7 63 -9 9z"/>
<path d="M1637 2064 c-4 -4 -7 -17 -7 -28 1 -19 1 -20 11 -3 11 19 8 43 -4 31z"/>
<path d="M1747 2021 c-4 -29 -6 -56 -2 -59 11 -12 16 8 13 59 l-3 54 -8 -54z"/>
<path d="M2340 2045 c0 -36 -39 -356 -60 -498 -29 -199 -45 -266 -96 -412 -25
-71 -57 -166 -70 -210 -43 -137 -95 -259 -125 -295 -26 -30 -32 -33 -49 -22
-11 6 -29 12 -39 12 -15 0 -25 15 -42 60 -12 33 -25 60 -29 60 -5 0 -22 29
-39 65 -32 70 -66 95 -106 77 -11 -5 -27 -6 -35 -2 -8 4 -24 11 -35 16 -32 16
-76 10 -205 -25 -33 -9 -85 -105 -101 -191 -24 -120 -11 -680 15 -680 25 1 35
18 38 69 4 76 24 77 44 2 10 -34 23 -61 30 -61 41 0 216 39 276 62 l26 10 -15
51 c-8 29 -18 57 -22 62 -26 36 -58 265 -47 338 l7 47 24 -17 c13 -10 31 -35
40 -56 21 -53 45 -221 45 -322 0 -66 3 -85 14 -85 28 0 198 93 277 151 214
159 375 374 462 616 88 243 92 578 12 828 -51 158 -193 414 -195 350z m-156
-1497 c-7 -76 -20 -122 -40 -138 -12 -11 -14 -6 -16 26 0 22 0 50 1 64 3 31
40 110 52 110 5 0 6 -28 3 -62z"/>
<path d="M1370 2006 c0 -9 -7 -16 -16 -16 -14 0 -14 -2 -3 -16 8 -10 15 -12
17 -5 2 6 10 11 19 11 8 0 13 7 11 17 -4 22 -28 29 -28 9z"/>
<path d="M1601 1998 c-1 -10 -12 -41 -25 -70 -19 -43 -32 -57 -69 -77 -30 -15
-55 -21 -71 -17 -47 12 -197 -81 -285 -176 -24 -27 -49 -48 -56 -48 -6 0 -20
-9 -30 -20 -14 -15 -30 -20 -64 -19 -27 1 -59 -5 -76 -14 -23 -13 -26 -16 -11
-17 20 0 20 0 0 -16 -19 -15 -19 -16 1 -8 11 4 32 9 48 12 15 2 30 8 33 13 3
5 14 9 26 9 19 0 66 28 96 57 8 7 18 10 23 7 6 -3 9 1 7 9 -3 16 60 92 70 83
3 -3 -3 -15 -13 -26 -10 -11 -15 -20 -11 -20 3 0 -1 -12 -10 -27 l-16 -28 20
25 c11 13 19 27 16 31 -2 4 12 19 31 33 19 15 35 23 36 19 0 -4 4 2 9 15 5 12
16 22 25 22 8 0 15 4 15 8 0 10 75 44 103 47 9 1 17 -2 17 -7 0 -5 5 -6 10 -3
6 3 10 2 10 -3 0 -14 49 -21 57 -9 4 6 1 7 -8 3 -8 -4 -6 -1 3 7 10 8 15 17
11 20 -3 4 -1 7 5 7 7 0 12 -5 12 -11 0 -7 9 -9 21 -6 15 4 19 1 17 -11 -2 -9
-11 -16 -21 -16 -22 2 -21 -4 2 -57 26 -57 36 -34 29 64 -6 74 1 111 17 105 5
-2 10 5 11 15 1 12 1 13 -3 2 -2 -8 -8 -13 -13 -10 -5 3 -3 22 4 43 8 21 10
45 5 57 -6 17 -8 17 -8 3z m-636 -448 c-3 -5 -11 -10 -16 -10 -6 0 -7 5 -4 10
3 6 11 10 16 10 6 0 7 -4 4 -10z"/>
<path d="M1690 1983 c0 -22 2 -25 10 -13 13 20 13 40 0 40 -5 0 -10 -12 -10
-27z"/>
<path d="M1716 1955 c4 -8 8 -15 10 -15 2 0 4 7 4 15 0 8 -4 15 -10 15 -5 0
-7 -7 -4 -15z"/>
<path d="M1190 1869 c-17 -24 -43 -64 -58 -89 -14 -25 -32 -53 -40 -62 -8 -10
-11 -18 -6 -18 15 0 29 14 40 40 16 36 63 90 79 90 18 0 41 58 27 72 -7 7 -20
-3 -42 -33z"/>
<path d="M1761 1894 c0 -11 3 -14 6 -6 3 7 2 16 -1 19 -3 4 -6 -2 -5 -13z"/>
<path d="M2015 1901 c-3 -6 3 -9 14 -8 11 0 17 5 15 9 -7 11 -22 10 -29 -1z"/>
<path d="M286 1864 c-4 -20 -18 -73 -30 -118 -13 -44 -26 -94 -30 -111 -6 -28
-5 -29 9 -11 20 26 29 16 9 -12 -8 -12 -21 -19 -29 -16 -12 5 -15 -2 -15 -30
0 -45 22 -48 40 -5 7 17 23 46 35 64 21 30 20 59 -1 55 -5 -1 -10 3 -12 9 -6
19 19 12 37 -11 19 -23 41 -18 41 11 0 24 -25 45 -44 38 -10 -4 -13 -1 -9 9 6
17 9 17 32 5 23 -13 35 -3 49 38 24 69 22 72 -69 119 -4 1 -10 -14 -13 -34z"/>
<path d="M1955 1870 c-3 -6 1 -7 9 -4 18 7 21 14 7 14 -6 0 -13 -4 -16 -10z"/>
<path d="M1754 1826 c-4 -11 0 -24 10 -34 15 -15 16 -15 16 3 0 11 -4 27 -10
35 -8 12 -10 12 -16 -4z"/>
<path d="M1677 1813 c-4 -3 -7 -13 -7 -21 0 -12 3 -12 15 -2 8 7 15 16 15 21
0 11 -14 12 -23 2z"/>
<path d="M1628 1773 c12 -2 22 -11 22 -19 0 -8 5 -14 10 -14 6 0 10 6 10 14 0
15 -22 27 -48 25 -10 -1 -8 -4 6 -6z"/>
<path d="M1810 1760 c0 -5 4 -10 9 -10 6 0 13 5 16 10 3 6 -1 10 -9 10 -9 0
-16 -4 -16 -10z"/>
<path d="M1420 1717 c0 -25 27 -57 48 -57 8 0 10 11 7 32 -7 38 -4 34 -32 42
-20 6 -23 4 -23 -17z"/>
<path d="M1365 1686 c-23 -16 -26 -60 -9 -103 15 -38 34 -43 35 -10 0 12 3 43
5 69 5 52 -4 64 -31 44z"/>
<path d="M1510 1680 c0 -11 2 -20 4 -20 2 0 6 9 9 20 3 11 1 20 -4 20 -5 0 -9
-9 -9 -20z"/>
<path d="M63 1668 c-14 -17 -37 -117 -29 -125 3 -4 6 0 6 9 0 17 39 56 49 48
12 -10 11 46 -2 63 -11 15 -15 16 -24 5z"/>
<path d="M1431 1618 c-7 -11 -10 -22 -7 -25 3 -3 8 2 12 11 3 9 9 14 13 12 4
-3 13 -1 20 3 9 6 8 10 -7 13 -12 3 -23 -2 -31 -14z"/>
<path d="M1587 1594 c-5 -46 10 -114 25 -114 8 0 9 6 13 64 2 33 -15 96 -25
96 -4 0 -10 -21 -13 -46z"/>
<path d="M1750 1621 c0 -26 15 -35 17 -11 1 11 -2 22 -8 25 -5 4 -9 -3 -9 -14z"/>
<path d="M270 1601 c-12 -24 -13 -41 -1 -41 5 0 14 14 20 30 11 33 -2 41 -19
11z"/>
<path d="M1304 1578 c3 -18 11 -37 17 -43 7 -7 8 -4 3 9 -5 13 -4 17 3 13 7
-5 9 0 6 14 -5 16 -8 18 -15 7 -7 -9 -8 -7 -5 10 3 12 0 22 -5 22 -6 0 -8 -13
-4 -32z"/>
<path d="M1177 1561 c4 -15 1 -20 -8 -18 -8 2 -11 2 -6 0 4 -3 5 -9 1 -14 -3
-5 -1 -9 5 -9 15 0 25 40 13 52 -8 8 -9 4 -5 -11z"/>
<path d="M1671 1543 c0 -16 4 -37 8 -47 12 -31 24 -1 17 40 -8 41 -26 46 -25
7z"/>
<path d="M820 1533 c1 -18 28 -44 35 -34 3 6 1 11 -4 11 -6 0 -11 5 -11 10 0
6 12 8 28 5 22 -4 24 -4 7 4 -25 12 -55 14 -55 4z"/>
<path d="M791 1455 c-1 -62 11 -90 18 -42 7 47 1 107 -10 107 -4 0 -7 -29 -8
-65z"/>
<path d="M1035 1499 c-4 -12 -12 -18 -21 -15 -21 8 -17 -8 9 -30 29 -25 53
-20 65 15 12 33 5 45 -25 48 -14 2 -24 -4 -28 -18z"/>
<path d="M1135 1510 c3 -5 8 -10 11 -10 2 0 4 5 4 10 0 6 -5 10 -11 10 -5 0
-7 -4 -4 -10z"/>
<path d="M1520 1505 c0 -8 4 -15 10 -15 5 0 7 7 4 15 -4 8 -8 15 -10 15 -2 0
-4 -7 -4 -15z"/>
<path d="M1652 1495 c0 -16 2 -22 5 -12 2 9 2 23 0 30 -3 6 -5 -1 -5 -18z"/>
<path d="M876 1488 c2 -4 -6 -9 -18 -11 -22 -4 -22 -4 2 -5 14 -1 33 5 43 12
17 13 16 14 -7 12 -13 0 -22 -4 -20 -8z"/>
<path d="M1390 1491 c0 -6 5 -13 10 -16 6 -3 10 1 10 9 0 9 -4 16 -10 16 -5 0
-10 -4 -10 -9z"/>
<path d="M190 1480 c0 -5 5 -10 11 -10 5 0 7 5 4 10 -3 6 -8 10 -11 10 -2 0
-4 -4 -4 -10z"/>
<path d="M1375 1430 c3 -5 8 -10 11 -10 2 0 4 5 4 10 0 6 -5 10 -11 10 -5 0
-7 -4 -4 -10z"/>
<path d="M717 1423 c-4 -3 -7 -27 -7 -52 1 -43 2 -45 15 -27 8 11 15 25 15 30
0 6 -5 4 -11 -4 -8 -11 -9 -6 -7 23 2 20 3 37 3 37 -1 0 -5 -3 -8 -7z"/>
<path d="M740 1415 c-7 -9 -8 -15 -2 -15 5 0 12 7 16 15 3 8 4 15 2 15 -2 0
-9 -7 -16 -15z"/>
<path d="M903 1423 c9 -2 17 -9 17 -14 0 -5 5 -9 10 -9 6 0 10 7 10 15 0 10
-9 15 -27 14 -17 -1 -21 -3 -10 -6z"/>
<path d="M1245 1420 c3 -5 14 -10 23 -10 15 0 15 2 2 10 -20 13 -33 13 -25 0z"/>
<path d="M863 1380 c-1 -14 4 -20 18 -20 22 0 24 11 7 28 -17 17 -24 15 -25
-8z"/>
<path d="M945 1380 c-3 -6 1 -7 9 -4 18 7 21 14 7 14 -6 0 -13 -4 -16 -10z"/>
<path d="M781 1359 c-21 -18 -23 -25 -18 -76 3 -31 1 -65 -4 -75 -7 -14 -6
-18 6 -18 17 0 21 -25 5 -35 -5 -3 -10 1 -10 9 0 9 -4 16 -8 16 -19 0 -21 -14
-6 -42 l15 -29 27 33 c15 18 29 35 32 38 7 6 37 78 45 106 4 15 0 24 -10 28
-11 4 -14 12 -10 27 5 15 4 19 -5 14 -6 -4 -17 0 -23 9 -11 13 -15 13 -36 -5z
m29 -5 c0 -8 -5 -12 -10 -9 -6 4 -8 11 -5 16 9 14 15 11 15 -7z"/>
<path d="M970 1333 c0 -5 9 -19 20 -33 17 -22 19 -23 25 -7 10 25 -1 47 -25
47 -11 0 -20 -3 -20 -7z"/>
<path d="M530 1249 c0 -6 -8 -9 -20 -6 -14 3 -26 -3 -40 -20 -18 -23 -18 -28
-5 -60 18 -42 19 -80 3 -85 -6 -2 -13 -30 -16 -63 -4 -50 -3 -57 11 -52 11 4
14 2 11 -7 -3 -7 2 -18 10 -25 12 -10 20 -4 45 33 17 24 31 49 31 54 0 6 6 13
13 15 6 3 2 6 -10 6 -17 1 -27 -8 -38 -35 -8 -20 -20 -34 -27 -32 -20 7 -21
53 -3 88 16 31 23 31 57 3 19 -17 63 -14 63 4 0 7 5 17 11 23 9 9 10 4 7 -17
-4 -25 -3 -26 8 -9 12 20 16 113 4 124 -3 4 -13 -2 -21 -13 -30 -41 -74 -18
-74 39 0 19 -4 38 -10 41 -5 3 -10 1 -10 -6z m0 -63 c0 -19 -9 -44 -20 -57
l-19 -24 -1 37 c0 45 16 91 30 83 5 -3 10 -21 10 -39z"/>
<path d="M1030 1249 c0 -5 5 -7 10 -4 6 3 10 8 10 11 0 2 -4 4 -10 4 -5 0 -10
-5 -10 -11z"/>
<path d="M720 1222 c0 -18 5 -32 10 -32 6 0 8 11 4 28 -10 39 -14 40 -14 4z"/>
<path d="M920 1127 c0 -33 27 -56 36 -32 8 19 -5 46 -24 53 -7 2 -12 -6 -12
-21z"/>
<path d="M1171 1064 c0 -11 3 -14 6 -6 3 7 2 16 -1 19 -3 4 -6 -2 -5 -13z"/>
<path d="M502 1043 c-8 -14 -9 -24 -2 -28 12 -7 24 18 18 37 -3 8 -9 5 -16 -9z"/>
<path d="M369 917 c-4 -41 -1 -50 19 -63 12 -8 27 -12 32 -9 6 3 10 1 10 -5 0
-6 7 -18 15 -26 18 -19 19 -34 3 -34 -14 0 -19 -93 -5 -106 4 -4 7 -1 7 6 0 7
7 22 16 32 14 14 14 20 4 33 -7 8 -10 21 -7 29 8 20 -25 96 -40 96 -7 0 -13
11 -13 25 0 13 -6 28 -14 32 -7 4 -15 15 -18 23 -3 8 -7 -7 -9 -33z"/>
<path d="M520 911 c-6 -12 -18 -21 -26 -21 -9 0 -12 -5 -8 -11 4 -7 16 -2 32
15 14 14 23 28 20 32 -4 3 -11 -4 -18 -15z"/>
<path d="M531 879 c-7 -12 -7 -19 -1 -19 5 0 10 -10 10 -22 0 -20 1 -21 20 -3
11 10 20 26 20 35 0 25 -34 31 -49 9z"/>
<path d="M375 840 c-4 -6 -11 -8 -16 -5 -5 3 -6 -1 -3 -9 8 -22 21 -20 27 4 6
22 2 26 -8 10z"/>
<path d="M191 773 c-30 -75 -30 -88 0 -141 46 -81 51 -77 45 39 -7 115 -24
153 -45 102z"/>
<path d="M395 740 c3 -5 11 -10 16 -10 6 0 7 5 4 10 -3 6 -11 10 -16 10 -6 0
-7 -4 -4 -10z"/>
<path d="M391 530 c0 -15 -6 -31 -13 -38 -9 -9 -9 -12 0 -12 16 0 25 23 19 52
-4 22 -4 22 -6 -2z"/>
<path d="M1241 454 c0 -11 3 -14 6 -6 3 7 2 16 -1 19 -3 4 -6 -2 -5 -13z"/>
<path d="M365 400 c3 -5 8 -10 11 -10 2 0 4 5 4 10 0 6 -5 10 -11 10 -5 0 -7
-4 -4 -10z"/>
<path d="M705 160 c-3 -5 -1 -10 4 -10 6 0 11 5 11 10 0 6 -2 10 -4 10 -3 0
-8 -4 -11 -10z"/>
</g>
</svg>
